<svg width="250" height="250" viewBox="0 0 250 250" fill="none" xmlns="http://www.w3.org/2000/svg">
<circle cx="125" cy="125" r="125" fill="#FF004D"/>
<path d="M66.7617 146L81 103.109H86.625L100.922 146H96.5273L92.6016 134.311H74.7891L71.0391 146H66.7617ZM83.666 106.098C83.373 106.996 82.8848 108.549 82.2012 110.756C81.5371 112.943 81.0488 114.535 80.7363 115.531L75.7852 131.117H91.6055L86.625 115.502C85.4922 111.986 84.5059 108.852 83.666 106.098ZM120.814 106.449H110.297V142.66H119.174C122.201 142.66 124.73 142.338 126.762 141.693C128.793 141.029 130.434 139.945 131.684 138.441C132.953 136.938 133.852 135.062 134.379 132.816C134.926 130.57 135.199 127.768 135.199 124.408C135.199 121.4 134.975 118.842 134.525 116.732C134.076 114.604 133.314 112.748 132.24 111.166C131.166 109.564 129.682 108.383 127.787 107.621C125.912 106.84 123.588 106.449 120.814 106.449ZM106.02 103.109H120.785C123.891 103.109 126.566 103.48 128.812 104.223C131.059 104.945 132.982 106.137 134.584 107.797C136.205 109.438 137.406 111.635 138.188 114.389C138.988 117.123 139.389 120.453 139.389 124.379C139.389 129.574 138.705 133.764 137.338 136.947C135.971 140.131 133.92 142.436 131.186 143.861C128.471 145.287 124.936 146 120.58 146H106.02V103.109ZM161.83 106.449H151.312V142.66H160.189C163.217 142.66 165.746 142.338 167.777 141.693C169.809 141.029 171.449 139.945 172.699 138.441C173.969 136.938 174.867 135.062 175.395 132.816C175.941 130.57 176.215 127.768 176.215 124.408C176.215 121.4 175.99 118.842 175.541 116.732C175.092 114.604 174.33 112.748 173.256 111.166C172.182 109.564 170.697 108.383 168.803 107.621C166.928 106.84 164.604 106.449 161.83 106.449ZM147.035 103.109H161.801C164.906 103.109 167.582 103.48 169.828 104.223C172.074 104.945 173.998 106.137 175.6 107.797C177.221 109.438 178.422 111.635 179.203 114.389C180.004 117.123 180.404 120.453 180.404 124.379C180.404 129.574 179.721 133.764 178.354 136.947C176.986 140.131 174.936 142.436 172.201 143.861C169.486 145.287 165.951 146 161.596 146H147.035V103.109Z" fill="white"/>
</svg>
