<svg width="50" height="50" viewBox="0 0 50 50" fill="none" xmlns="http://www.w3.org/2000/svg">
<circle cx="25" cy="25" r="25" fill="#FF004D"/>
<path d="M10.1904 31L13.75 20.2773H15.1562L18.7305 31H17.6318L16.6504 28.0776H12.1973L11.2598 31H10.1904ZM14.4165 21.0244C14.3433 21.249 14.2212 21.6372 14.0503 22.189C13.8843 22.7358 13.7622 23.1338 13.6841 23.3828L12.4463 27.2793H16.4014L15.1562 23.3755C14.873 22.4966 14.6265 21.7129 14.4165 21.0244ZM23.7036 21.1123H21.0742V30.165H23.2935C24.0503 30.165 24.6826 30.0845 25.1904 29.9233C25.6982 29.7573 26.1084 29.4863 26.4209 29.1104C26.7383 28.7344 26.9629 28.2656 27.0947 27.7041C27.2314 27.1426 27.2998 26.4419 27.2998 25.6021C27.2998 24.8501 27.2437 24.2104 27.1313 23.6831C27.019 23.1509 26.8286 22.687 26.5601 22.2915C26.2915 21.8911 25.9204 21.5957 25.4468 21.4053C24.978 21.21 24.397 21.1123 23.7036 21.1123ZM20.0049 20.2773H23.6963C24.4727 20.2773 25.1416 20.3701 25.7031 20.5557C26.2646 20.7363 26.7456 21.0342 27.146 21.4492C27.5513 21.8594 27.8516 22.4087 28.0469 23.0972C28.2471 23.7808 28.3472 24.6133 28.3472 25.5947C28.3472 26.8936 28.1763 27.9409 27.8345 28.7368C27.4927 29.5327 26.98 30.1089 26.2964 30.4653C25.6177 30.8218 24.7339 31 23.645 31H20.0049V20.2773ZM33.9575 21.1123H31.3281V30.165H33.5474C34.3042 30.165 34.9365 30.0845 35.4443 29.9233C35.9521 29.7573 36.3623 29.4863 36.6748 29.1104C36.9922 28.7344 37.2168 28.2656 37.3486 27.7041C37.4854 27.1426 37.5537 26.4419 37.5537 25.6021C37.5537 24.8501 37.4976 24.2104 37.3853 23.6831C37.2729 23.1509 37.0825 22.687 36.814 22.2915C36.5454 21.8911 36.1743 21.5957 35.7007 21.4053C35.2319 21.21 34.6509 21.1123 33.9575 21.1123ZM30.2588 20.2773H33.9502C34.7266 20.2773 35.3955 20.3701 35.957 20.5557C36.5186 20.7363 36.9995 21.0342 37.3999 21.4492C37.8052 21.8594 38.1055 22.4087 38.3008 23.0972C38.501 23.7808 38.6011 24.6133 38.6011 25.5947C38.6011 26.8936 38.4302 27.9409 38.0884 28.7368C37.7466 29.5327 37.2339 30.1089 36.5503 30.4653C35.8716 30.8218 34.9878 31 33.8989 31H30.2588V20.2773Z" fill="white"/>
</svg>
