<svg width="79" height="22" viewBox="0 0 79 22" fill="none" xmlns="http://www.w3.org/2000/svg">
<path d="M77.1894 17.7872C78.0097 17.6715 78.5809 16.9128 78.4652 16.0925L76.58 2.72473C76.4644 1.90442 75.7056 1.3332 74.8853 1.44889C74.065 1.56457 73.4938 2.32334 73.6094 3.14365L75.2851 15.0261L63.4027 16.7018C62.5824 16.8175 62.0112 17.5762 62.1269 18.3966C62.2426 19.2169 63.0013 19.7881 63.8216 19.6724L77.1894 17.7872ZM0.58971 1.59003C6.87754 13.3478 12.6873 18.9186 18.6865 20.5994C24.6785 22.2781 30.3798 19.9195 35.914 17.2469C41.5986 14.5018 47.2443 11.3567 53.7275 10.4716C60.075 9.6051 67.3304 10.9152 76.0778 17.5003L77.8821 15.1035C68.5728 8.09539 60.5358 6.51437 53.3217 7.49919C46.2433 8.46549 40.0582 11.9142 34.6095 14.5454C29.0103 17.2493 24.2758 19.0498 19.4958 17.7106C14.723 16.3735 9.42477 11.7493 3.23518 0.175281L0.58971 1.59003Z" fill="#F1157F"/>
</svg>
