<svg width="151" height="66" viewBox="0 0 151 66" fill="none" xmlns="http://www.w3.org/2000/svg">
<path d="M150.745 53.2681C151.194 52.5716 150.993 51.6434 150.296 51.1949L138.945 43.8872C138.248 43.4388 137.32 43.6399 136.872 44.3365C136.423 45.033 136.624 45.9612 137.321 46.4097L147.411 52.9054L140.915 62.9953C140.467 63.6918 140.668 64.62 141.364 65.0685C142.061 65.5169 142.989 65.3158 143.438 64.6192L150.745 53.2681ZM3.47792 40.4452C5.96916 27.8659 8.67214 19.059 11.6327 13.1809C14.5964 7.29641 17.6954 4.58251 20.8701 3.73374C24.0794 2.87577 27.8188 3.79623 32.3574 6.26343C36.8779 8.72078 41.9173 12.5587 47.6286 17.1175C70.3139 35.225 102.752 64.1178 149.802 53.9221L149.166 50.9902C103.732 60.8358 72.4318 33.0771 49.5001 14.7728C43.8072 10.2287 38.575 6.22871 33.7902 3.62769C29.0236 1.03652 24.4243 -0.321825 20.0953 0.835531C15.7318 2.0021 12.093 5.59767 8.95332 11.8314C5.81046 18.0715 3.04446 27.1914 0.535077 39.8624L3.47792 40.4452Z" fill="#F1157F"/>
</svg>
