<svg width="79" height="22" viewBox="0 0 79 22" fill="none" xmlns="http://www.w3.org/2000/svg">
<path d="M77.4443 18.2184C78.2646 18.1027 78.8358 17.3439 78.7201 16.5236L76.8349 3.15588C76.7192 2.33557 75.9605 1.76436 75.1402 1.88004C74.3198 1.99572 73.7486 2.7545 73.8643 3.57481L75.54 15.4572L63.6576 17.1329C62.8373 17.2486 62.2661 18.0074 62.3818 18.8277C62.4974 19.648 63.2562 20.2192 64.0765 20.1035L77.4443 18.2184ZM0.844593 2.02118C7.13242 13.7789 12.9422 19.3498 18.9413 21.0305C24.9333 22.7093 30.6347 20.3506 36.1689 17.6781C41.8535 14.9329 47.4992 11.7878 53.9824 10.9028C60.3299 10.0363 67.5853 11.3463 76.3326 17.9315L78.1369 15.5347C68.8276 8.52654 60.7907 6.94553 53.5766 7.93035C46.4982 8.89664 40.3131 12.3453 34.8643 14.9766C29.2652 17.6805 24.5306 19.481 19.7507 18.1418C14.9779 16.8046 9.67965 12.1805 3.49006 0.606433L0.844593 2.02118Z" fill="#F1157F"/>
</svg>
