<svg width="100" height="100" viewBox="0 0 100 100" fill="none" xmlns="http://www.w3.org/2000/svg">
<circle cx="50" cy="50" r="49.25" fill="white" stroke="black" stroke-width="1.5"/>
<path d="M60.6387 40.2148C58.7441 41.2891 57.7969 41.8359 57.7969 41.8555C57.1328 40.332 56.2051 39.2383 55.0137 38.5742C53.8223 37.8906 52.25 37.5488 50.2969 37.5488C47.875 37.5488 46.0391 37.9883 44.7891 38.8672C43.5391 39.7461 42.9141 41.0449 42.9141 42.7637C42.9141 43.4473 43.041 44.0527 43.2949 44.5801C43.5684 45.1074 43.9102 45.5469 44.3203 45.8984C44.75 46.2305 45.3262 46.543 46.0488 46.8359C46.7715 47.1094 47.4648 47.3242 48.1289 47.4805C48.8125 47.6367 49.6621 47.8125 50.6777 48.0078C54.0762 48.6328 56.625 49.6094 58.3242 50.9375C60.043 52.2461 60.9023 54.1406 60.9023 56.6211C60.9023 59.5703 59.916 61.8262 57.9434 63.3887C55.9707 64.9316 53.002 65.7031 49.0371 65.7031C47.8457 65.7031 46.6934 65.5762 45.5801 65.3223C44.4863 65.0879 43.4219 64.707 42.3867 64.1797C41.3711 63.6328 40.4727 62.8711 39.6914 61.8945C38.9102 60.8984 38.334 59.7363 37.9629 58.4082L41.127 57.1191C41.8301 59.0332 42.8066 60.4199 44.0566 61.2793C45.3066 62.1387 47.0938 62.5684 49.418 62.5684C54.5547 62.5684 57.123 60.8496 57.123 57.4121C57.123 55.5371 56.5371 54.2188 55.3652 53.457C54.1934 52.6758 51.7227 51.8945 47.9531 51.1133C46.8203 50.8789 45.8633 50.6445 45.082 50.4102C44.3203 50.1562 43.5195 49.8145 42.6797 49.3848C41.8594 48.9551 41.1953 48.4668 40.6875 47.9199C40.1992 47.3535 39.7891 46.6309 39.457 45.752C39.1445 44.873 38.9883 43.8574 38.9883 42.7051C38.9883 40.0684 40.0039 38.0273 42.0352 36.582C44.0859 35.1367 46.7617 34.4141 50.0625 34.4141C52.7188 34.4141 54.8867 34.8535 56.5664 35.7324C58.2461 36.6113 59.6035 38.1055 60.6387 40.2148Z" fill="black"/>
</svg>
