<svg width="100" height="100" viewBox="0 0 100 100" fill="none" xmlns="http://www.w3.org/2000/svg">
<circle cx="50" cy="50" r="48.75" fill="white" stroke="black" stroke-width="2.5"/>
<path d="M50.1055 27.582C53.5625 27.582 56.4824 28.1582 58.8652 29.3105C61.2676 30.4629 63.3184 32.3379 65.0176 34.9355L61.8535 37.2793C60.7012 35.248 59.1484 33.7051 57.1953 32.6504C55.2422 31.5762 53.084 31.0391 50.7207 31.0391C47.6543 31.0391 45.1543 31.6055 43.2207 32.7383C41.2871 33.8711 40.3203 35.6094 40.3203 37.9531C40.3203 38.8711 40.5254 39.7109 40.9355 40.4727C41.3457 41.2344 41.834 41.8594 42.4004 42.3477C42.9863 42.8359 43.7578 43.3145 44.7148 43.7832C45.6914 44.252 46.5605 44.6133 47.3223 44.8672C48.1035 45.1211 49.0703 45.4336 50.2227 45.8047C51.375 46.1758 52.2637 46.4785 52.8887 46.7129C54.1973 47.2207 55.2715 47.6504 56.1113 48.002C56.9512 48.334 57.8789 48.7539 58.8945 49.2617C59.9102 49.7695 60.7305 50.248 61.3555 50.6973C61.9805 51.127 62.6152 51.6543 63.2598 52.2793C63.9043 52.9043 64.3926 53.5586 64.7246 54.2422C65.0762 54.9258 65.3594 55.7168 65.5742 56.6152C65.8086 57.4941 65.9258 58.4512 65.9258 59.4863C65.9258 63.334 64.4805 66.3418 61.5898 68.5098C58.7188 70.6582 54.8613 71.7324 50.0176 71.7324C48.6309 71.7324 47.2539 71.6152 45.8867 71.3809C44.5391 71.1465 43.1621 70.7461 41.7559 70.1797C40.3691 69.6133 39.1191 68.9004 38.0059 68.041C36.8926 67.1816 35.9062 66.0684 35.0469 64.7012C34.207 63.334 33.6309 61.791 33.3184 60.0723L36.9219 58.5195C37.8008 61.7422 39.334 64.1348 41.5215 65.6973C43.7285 67.2598 46.6484 68.041 50.2812 68.041C51.3945 68.041 52.459 67.9629 53.4746 67.8066C54.4902 67.6309 55.4863 67.3379 56.4629 66.9277C57.459 66.5176 58.3184 66.0098 59.041 65.4043C59.7637 64.7793 60.3398 63.9785 60.7695 63.002C61.2188 62.0059 61.4434 60.8828 61.4434 59.6328C61.4434 58.832 61.3359 58.0996 61.1211 57.4355C60.9062 56.7715 60.6816 56.2051 60.4473 55.7363C60.2129 55.248 59.7441 54.75 59.041 54.2422C58.3379 53.7344 57.7812 53.3438 57.3711 53.0703C56.9609 52.7773 56.1699 52.3965 54.998 51.9277C53.8262 51.459 52.9473 51.127 52.3613 50.9316C51.7949 50.7168 50.7207 50.3359 49.1387 49.7891C48.8848 49.6914 48.6895 49.623 48.5527 49.584C45.0762 48.373 42.6543 47.3867 41.2871 46.625C38.1426 44.8867 36.3555 42.6016 35.9258 39.7695C35.8672 39.3008 35.8379 38.8125 35.8379 38.3047C35.8379 36.5273 36.2383 34.9355 37.0391 33.5293C37.8398 32.123 38.9141 31 40.2617 30.1602C41.6289 29.3008 43.1426 28.6563 44.8027 28.2266C46.4824 27.7969 48.25 27.582 50.1055 27.582Z" fill="black"/>
<path d="M58.8652 29.3105L58.4299 30.2108L58.4327 30.2122L58.8652 29.3105ZM65.0176 34.9355L65.6128 35.7391L66.3709 35.1776L65.8544 34.3881L65.0176 34.9355ZM61.8535 37.2793L60.9837 37.7727L61.5411 38.7552L62.4487 38.0829L61.8535 37.2793ZM57.1953 32.6504L56.7134 33.5266L56.7202 33.5303L57.1953 32.6504ZM42.4004 42.3477L41.7475 43.1051L41.7538 43.1105L41.7602 43.1159L42.4004 42.3477ZM44.7148 43.7832L44.275 44.6813L44.2821 44.6847L44.7148 43.7832ZM47.3223 44.8672L47.006 45.8159L47.0132 45.8182L47.3223 44.8672ZM52.8887 46.7129L53.2505 45.7806L53.2398 45.7766L52.8887 46.7129ZM56.1113 48.002L55.7252 48.9244L55.7344 48.9282L55.7437 48.9319L56.1113 48.002ZM61.3555 50.6973L60.7718 51.5093L60.7803 51.5154L60.7889 51.5213L61.3555 50.6973ZM64.7246 54.2422L63.8251 54.6791L63.8301 54.6894L63.8353 54.6995L64.7246 54.2422ZM65.5742 56.6152L64.6016 56.8478L64.6046 56.8604L64.608 56.8729L65.5742 56.6152ZM61.5898 68.5098L62.189 69.3104L62.1898 69.3098L61.5898 68.5098ZM45.8867 71.3809L45.7154 72.3661L45.7178 72.3665L45.8867 71.3809ZM41.7559 70.1797L41.3777 71.1055L41.3822 71.1073L41.7559 70.1797ZM35.0469 64.7012L34.1948 65.2246L34.2002 65.2333L35.0469 64.7012ZM33.3184 60.0723L32.9226 59.1539L32.1922 59.4686L32.3345 60.2512L33.3184 60.0723ZM36.9219 58.5195L37.8866 58.2564L37.5837 57.1455L36.5262 57.6012L36.9219 58.5195ZM41.5215 65.6973L40.9402 66.511L40.9437 66.5134L41.5215 65.6973ZM53.4746 67.8066L53.6267 68.795L53.6359 68.7936L53.6452 68.792L53.4746 67.8066ZM56.4629 66.9277L56.0821 66.003L56.0757 66.0058L56.4629 66.9277ZM59.041 65.4043L59.6832 66.1708L59.6892 66.1658L59.6952 66.1607L59.041 65.4043ZM60.7695 63.002L59.8579 62.5908L59.8542 62.5992L60.7695 63.002ZM60.4473 55.7363L59.5457 56.1691L59.5492 56.1763L59.5528 56.1835L60.4473 55.7363ZM57.3711 53.0703L56.7899 53.884L56.803 53.8934L56.8164 53.9024L57.3711 53.0703ZM52.3613 50.9316L52.0067 51.8666L52.0257 51.8739L52.0451 51.8803L52.3613 50.9316ZM49.1387 49.7891L48.7797 50.7224L48.7957 50.7286L48.812 50.7342L49.1387 49.7891ZM48.5527 49.584L48.2238 50.5283L48.2507 50.5377L48.278 50.5455L48.5527 49.584ZM41.2871 46.625L41.7738 45.7514L41.7709 45.7498L41.2871 46.625ZM35.9258 39.7695L34.9335 39.8936L34.9351 39.9066L34.9371 39.9195L35.9258 39.7695ZM40.2617 30.1602L40.7906 31.0089L40.7939 31.0068L40.2617 30.1602ZM44.8027 28.2266L44.5549 27.2578L44.5522 27.2585L44.8027 28.2266ZM50.1055 28.582C53.4561 28.582 56.2177 29.141 58.4299 30.2108L59.3006 28.4103C56.7471 27.1754 53.6689 26.582 50.1055 26.582V28.582ZM58.4327 30.2122C60.645 31.2733 62.5647 33.0125 64.1807 35.483L65.8544 34.3881C64.072 31.6633 61.8902 29.6524 59.2977 28.4089L58.4327 30.2122ZM64.4224 34.132L61.2583 36.4757L62.4487 38.0829L65.6128 35.7391L64.4224 34.132ZM62.7233 36.7859C61.4834 34.6002 59.7976 32.9191 57.6705 31.7705L56.7202 33.5303C58.4993 34.491 59.919 35.8959 60.9837 37.7727L62.7233 36.7859ZM57.6772 31.7742C55.5675 30.6138 53.242 30.0391 50.7207 30.0391V32.0391C52.926 32.0391 54.9168 32.5385 56.7134 33.5266L57.6772 31.7742ZM50.7207 30.0391C47.5394 30.0391 44.8485 30.6257 42.7152 31.8755L43.7262 33.6011C45.4601 32.5853 47.7692 32.0391 50.7207 32.0391V30.0391ZM42.7152 31.8755C40.4585 33.1976 39.3203 35.2743 39.3203 37.9531H41.3203C41.3203 35.9444 42.1157 34.5446 43.7262 33.6011L42.7152 31.8755ZM39.3203 37.9531C39.3203 39.0262 39.5617 40.0304 40.0551 40.9468L41.816 39.9986C41.4891 39.3915 41.3203 38.716 41.3203 37.9531H39.3203ZM40.0551 40.9468C40.5142 41.7994 41.0752 42.5256 41.7475 43.1051L43.0533 41.5902C42.5927 41.1932 42.1772 40.6694 41.816 39.9986L40.0551 40.9468ZM41.7602 43.1159C42.4263 43.671 43.2722 44.1901 44.275 44.6813L45.1547 42.8851C44.2434 42.4388 43.5463 42.0009 43.0406 41.5794L41.7602 43.1159ZM44.2821 44.6847C45.2844 45.1658 46.1936 45.545 47.006 45.8159L47.6385 43.9185C46.9275 43.6815 46.0984 43.3381 45.1476 42.8817L44.2821 44.6847ZM47.0132 45.8182C47.7956 46.0725 48.7633 46.3853 49.9161 46.7565L50.5292 44.8528C49.3773 44.4819 48.4115 44.1697 47.6314 43.9162L47.0132 45.8182ZM49.9161 46.7565C51.0634 47.126 51.9346 47.4231 52.5375 47.6492L53.2398 45.7766C52.5928 45.5339 51.6866 45.2256 50.5292 44.8528L49.9161 46.7565ZM52.5269 47.6452C53.8312 48.1513 54.8965 48.5775 55.7252 48.9244L56.4975 47.0795C55.6465 46.7233 54.5634 46.2901 53.2504 45.7806L52.5269 47.6452ZM55.7437 48.9319C56.5507 49.251 57.4514 49.6582 58.4473 50.1561L59.3417 48.3673C58.3064 47.8496 57.3517 47.417 56.479 47.072L55.7437 48.9319ZM58.4473 50.1561C59.4355 50.6502 60.2051 51.102 60.7718 51.5093L61.9391 49.8853C61.2558 49.3941 60.3848 48.8888 59.3417 48.3673L58.4473 50.1561ZM60.7889 51.5213C61.3604 51.9142 61.9522 52.4043 62.5636 52.9972L63.9559 51.5614C63.2783 50.9043 62.6006 50.3397 61.922 49.8732L60.7889 51.5213ZM62.5636 52.9972C63.1393 53.5555 63.5523 54.1174 63.8251 54.6791L65.6241 53.8053C65.2329 52.9998 64.6693 52.2531 63.9559 51.5614L62.5636 52.9972ZM63.8353 54.6995C64.1437 55.2992 64.4018 56.0123 64.6016 56.8478L66.5468 56.3827C66.3169 55.4213 66.0086 54.5524 65.6139 53.7848L63.8353 54.6995ZM64.608 56.8729C64.8171 57.6571 64.9258 58.5264 64.9258 59.4863H66.9258C66.9258 58.3759 66.8001 57.3312 66.5405 56.3576L64.608 56.8729ZM64.9258 59.4863C64.9258 63.043 63.6102 65.7445 60.9898 67.7098L62.1898 69.3098C65.3507 66.9391 66.9258 63.625 66.9258 59.4863H64.9258ZM60.9907 67.7091C58.3442 69.6895 54.7202 70.7324 50.0176 70.7324V72.7324C55.0025 72.7324 59.0933 71.6269 62.189 69.3104L60.9907 67.7091ZM50.0176 70.7324C48.6875 70.7324 47.3671 70.62 46.0557 70.3952L45.7178 72.3665C47.1407 72.6104 48.5742 72.7324 50.0176 72.7324V70.7324ZM46.0581 70.3956C44.7867 70.1745 43.4774 69.795 42.1295 69.2521L41.3822 71.1073C42.8468 71.6972 44.2915 72.1184 45.7154 72.3661L46.0581 70.3956ZM42.134 69.2539C40.8252 68.7194 39.6545 68.0503 38.6169 67.2494L37.3948 68.8326C38.5838 69.7504 39.9131 70.5072 41.3777 71.1054L42.134 69.2539ZM38.6169 67.2494C37.6095 66.4718 36.6994 65.4511 35.8935 64.169L34.2002 65.2333C35.1131 66.6856 36.1756 67.8915 37.3948 68.8326L38.6169 67.2494ZM35.899 64.1778C35.1296 62.9253 34.5945 61.501 34.3022 59.8934L32.3345 60.2512C32.6672 62.0811 33.2845 63.7427 34.1948 65.2246L35.899 64.1778ZM33.7141 60.9906L37.3176 59.4379L36.5262 57.6012L32.9226 59.1539L33.7141 60.9906ZM35.9571 58.7826C36.8815 62.1721 38.5234 64.7847 40.9402 66.511L42.1027 64.8835C40.1446 63.4849 38.72 61.3122 37.8866 58.2564L35.9571 58.7826ZM40.9437 66.5134C43.3689 68.2304 46.5114 69.041 50.2812 69.041V67.041C46.7855 67.041 44.0881 66.2891 42.0993 64.8811L40.9437 66.5134ZM50.2812 69.041C51.4413 69.041 52.5568 68.9596 53.6267 68.795L53.3226 66.8183C52.3612 66.9662 51.3478 67.041 50.2812 67.041V69.041ZM53.6452 68.792C54.7372 68.603 55.8059 68.2883 56.8501 67.8497L56.0757 66.0058C55.1668 66.3875 54.2433 66.6587 53.3041 66.8213L53.6452 68.792ZM56.8436 67.8524C57.9212 67.4087 58.8718 66.8507 59.6832 66.1708L58.3988 64.6378C57.765 65.1688 56.9968 65.6265 56.0821 66.0031L56.8436 67.8524ZM59.6952 66.1607C60.5425 65.4278 61.2024 64.5011 61.6848 63.4047L59.8542 62.5992C59.4773 63.456 58.9848 64.1308 58.3869 64.6479L59.6952 66.1607ZM61.6811 63.4131C62.1964 62.2704 62.4434 61.0042 62.4434 59.6328H60.4434C60.4434 60.7614 60.2411 61.7413 59.8579 62.5908L61.6811 63.4131ZM62.4434 59.6328C62.4434 58.7426 62.3239 57.9046 62.0725 57.1277L60.1696 57.7434C60.348 58.2946 60.4434 58.9214 60.4434 59.6328H62.4434ZM62.0725 57.1277C61.847 56.4305 61.6045 55.8148 61.3417 55.2891L59.5528 56.1835C59.7588 56.5954 59.9655 57.1125 60.1696 57.7434L62.0725 57.1277ZM61.3488 55.3036C61.0114 54.6006 60.3919 53.9843 59.6265 53.4315L58.4555 55.0529C59.0964 55.5157 59.4144 55.8955 59.5457 56.1691L61.3488 55.3036ZM59.6265 53.4315C58.9196 52.921 58.3513 52.5219 57.9258 52.2383L56.8164 53.9024C57.2112 54.1656 57.7562 54.5478 58.4555 55.0529L59.6265 53.4315ZM57.9523 52.2566C57.4327 51.8854 56.5374 51.4664 55.3694 50.9993L54.6267 52.8562C55.8024 53.3265 56.4891 53.6692 56.7899 53.884L57.9523 52.2566ZM55.3694 50.9993C54.194 50.5291 53.2926 50.188 52.6776 49.983L52.0451 51.8803C52.6019 52.0659 53.4583 52.3889 54.6267 52.8562L55.3694 50.9993ZM52.716 49.9966C52.1337 49.7758 51.0459 49.3903 49.4654 48.8439L48.812 50.7342C50.3955 51.2816 51.4562 51.6578 52.0067 51.8666L52.716 49.9966ZM49.4977 48.8557C49.2362 48.7551 49.0077 48.674 48.8275 48.6225L48.278 50.5455C48.3712 50.5721 48.5334 50.6277 48.7797 50.7224L49.4977 48.8557ZM48.8817 48.6396C45.4065 47.4292 43.0579 46.4668 41.7738 45.7514L40.8004 47.4986C42.2507 48.3066 44.7458 49.3169 48.2238 50.5283L48.8817 48.6396ZM41.7709 45.7498C38.8219 44.1196 37.2859 42.0676 36.9145 39.6195L34.9371 39.9195C35.425 43.1355 37.4633 45.6538 40.8033 47.5002L41.7709 45.7498ZM36.9181 39.6455C36.865 39.2208 36.8379 38.7741 36.8379 38.3047H34.8379C34.8379 38.8509 34.8694 39.3807 34.9335 39.8936L36.9181 39.6455ZM36.8379 38.3047C36.8379 36.6834 37.2014 35.2651 37.908 34.0241L36.1701 33.0345C35.2752 34.606 34.8379 36.3713 34.8379 38.3047H36.8379ZM37.908 34.0241C38.6283 32.7594 39.5867 31.7591 40.7906 31.0088L39.7328 29.3115C38.2414 30.2409 37.0514 31.4867 36.1701 33.0345L37.908 34.0241ZM40.7939 31.0068C42.0688 30.2054 43.4865 29.6002 45.0533 29.1947L44.5522 27.2585C42.7986 27.7123 41.189 28.3961 39.7295 29.3135L40.7939 31.0068ZM45.0506 29.1954C46.6438 28.7878 48.3278 28.582 50.1055 28.582V26.582C48.1722 26.582 46.321 26.806 44.5549 27.2578L45.0506 29.1954Z" fill="black"/>
</svg>
