<svg width="32" height="227" viewBox="0 0 32 227" fill="none" xmlns="http://www.w3.org/2000/svg">
<g filter="url(#filter0_d_176_6)">
<path d="M6.53223 1.8584C7.00651 1.23275 7.48584 1.08138 7.97021 1.4043L9.72607 2.56982C10.3013 2.95329 10.3315 3.51335 9.81689 4.25C9.42334 4.8151 9.01465 5.55176 8.59082 6.45996C8.17708 7.37826 7.97021 8.34196 7.97021 9.35107C7.97021 10.0575 8.05094 10.7386 8.2124 11.3945C8.37386 12.0505 8.68669 12.55 9.15088 12.8931C9.61507 13.2362 10.165 13.4077 10.8008 13.4077C11.2549 13.4077 11.6535 13.332 11.9966 13.1807C12.3397 13.0293 12.6222 12.7821 12.8442 12.439C13.0662 12.0959 13.2529 11.7427 13.4043 11.3794C13.6667 10.7437 13.924 9.94141 14.1763 8.97266C14.4386 8.014 14.7515 7.06543 15.1147 6.12695C15.4377 5.28939 15.8817 4.52246 16.4468 3.82617C17.0119 3.12988 17.6476 2.59001 18.354 2.20654C19.0604 1.82308 20.0039 1.63135 21.1846 1.63135C22.5872 1.63135 23.7881 2.08545 24.7871 2.99365C25.7861 3.90186 26.4269 4.94629 26.7095 6.12695C26.992 7.30762 27.1333 8.49837 27.1333 9.69922C27.1333 10.89 26.9517 12.116 26.5884 13.3774C26.2251 14.6489 25.771 15.6076 25.2261 16.2534C24.6912 16.8892 24.2069 17.0456 23.7729 16.7227L22.123 15.4966C21.5579 15.0828 21.5125 14.5278 21.9868 13.8315C22.2896 13.3875 22.6276 12.777 23.001 12C23.3743 11.2331 23.561 10.4308 23.561 9.59326C23.561 8.99788 23.5106 8.44792 23.4097 7.94336C23.3088 7.44889 23.0666 7.00993 22.6831 6.62646C22.2996 6.243 21.8254 6.05127 21.2603 6.05127C20.7153 6.05127 20.2713 6.19255 19.9282 6.4751C19.5952 6.75765 19.3429 7.07048 19.1714 7.41357C19.0099 7.75667 18.8737 8.10482 18.7627 8.45801C18.4095 9.54785 18.0967 10.5216 17.8242 11.3794C17.5618 12.2371 17.2692 13.0293 16.9463 13.7559C16.4922 14.765 16.0381 15.5369 15.584 16.0718C15.1299 16.6066 14.5093 17.0456 13.7222 17.3887C12.9351 17.7419 11.9966 17.9185 10.9067 17.9185C9.29215 17.9185 7.95508 17.4038 6.89551 16.3745C5.84603 15.3452 5.16992 14.1999 4.86719 12.9385C4.55436 11.6872 4.39795 10.4661 4.39795 9.27539C4.39795 7.51953 4.5695 6.09163 4.9126 4.9917C5.24561 3.89176 5.78548 2.84733 6.53223 1.8584ZM13.9492 21.3999H25.7861C26.3411 21.3999 26.6187 21.7531 26.6187 22.4595V24.7603C26.6187 25.4666 26.3411 25.8198 25.7861 25.8198H14.1006C11.376 25.8198 9.67057 26.2184 8.98437 27.0156C8.30827 27.8229 7.97021 28.7311 7.97021 29.7402C7.97021 30.7493 8.30827 31.6525 8.98437 32.4497C9.67057 33.257 11.376 33.6606 14.1006 33.6606L25.7861 33.6606C26.3411 33.6606 26.6187 34.0138 26.6187 34.7202V37.021C26.6187 37.7274 26.3411 38.0806 25.7861 38.0806L13.9492 38.0806C10.4173 38.0806 7.93994 37.3338 6.51709 35.8403C5.10433 34.3468 4.39795 32.3135 4.39795 29.7402C4.39795 27.167 5.10433 25.1336 6.51709 23.6401C7.93994 22.1466 10.4173 21.3999 13.9492 21.3999ZM4.9126 43.9839C4.9126 43.2775 5.29102 42.9243 6.04785 42.9243L25.4834 42.9243C26.2402 42.9243 26.6187 43.2775 26.6187 43.9839V48.3735C26.6187 48.9588 26.215 49.3776 25.4077 49.6299L12.1328 53.7319C11.5576 53.9136 11.0833 54.0397 10.71 54.1104C10.3467 54.181 9.91276 54.2415 9.4082 54.292V54.3828C9.91276 54.4333 10.3467 54.4938 10.71 54.5645C11.0833 54.6351 11.5576 54.7612 12.1328 54.9429L25.4077 59.0449C26.215 59.2972 26.6187 59.716 26.6187 60.3013V64.6909C26.6187 65.3973 26.2402 65.7505 25.4834 65.7505H6.04785C5.29102 65.7505 4.9126 65.3973 4.9126 64.6909V62.3901C4.9126 61.6838 5.29102 61.3306 6.04785 61.3306H18.5508C19.1562 61.3306 19.7617 61.3558 20.3672 61.4062V61.3003L6.13867 56.9258C5.32129 56.6735 4.9126 56.2396 4.9126 55.624L4.9126 53.0508C4.9126 52.4352 5.32129 52.0013 6.13867 51.749L20.3672 47.3745V47.2686C19.7617 47.319 19.1562 47.3442 18.5508 47.3442H6.04785C5.29102 47.3442 4.9126 46.991 4.9126 46.2847V43.9839ZM4.9126 71.6538C4.9126 70.9474 5.29102 70.5942 6.04785 70.5942H25.4834C26.2402 70.5942 26.6187 70.9474 26.6187 71.6538L26.6187 76.0435C26.6187 76.6287 26.215 77.0475 25.4077 77.2998L12.1328 81.4019C11.5576 81.5835 11.0833 81.7096 10.71 81.7803C10.3467 81.8509 9.91276 81.9115 9.4082 81.9619V82.0527C9.91276 82.1032 10.3467 82.1637 10.71 82.2344C11.0833 82.305 11.5576 82.4312 12.1328 82.6128L25.4077 86.7148C26.215 86.9671 26.6187 87.3859 26.6187 87.9712V92.3608C26.6187 93.0672 26.2402 93.4204 25.4834 93.4204H6.04785C5.29102 93.4204 4.9126 93.0672 4.9126 92.3608V90.0601C4.9126 89.3537 5.29102 89.0005 6.04785 89.0005H18.5508C19.1562 89.0005 19.7617 89.0257 20.3672 89.0762V88.9702L6.13867 84.5957C5.32129 84.3434 4.9126 83.9095 4.9126 83.2939V80.7207C4.9126 80.1051 5.32129 79.6712 6.13867 79.4189L20.3672 75.0444V74.9385C19.7617 74.9889 19.1562 75.0142 18.5508 75.0142H6.04785C5.29102 75.0142 4.9126 74.661 4.9126 73.9546V71.6538ZM4.9126 99.3237C4.9126 98.6174 5.29102 98.2642 6.04785 98.2642H25.4834C26.2402 98.2642 26.6187 98.6174 26.6187 99.3237L26.6187 112.311C26.6187 113.068 26.2907 113.446 25.6348 113.446H23.8486C23.1927 113.446 22.8647 113.068 22.8647 112.311L22.8647 102.684H18.0513V111.509C18.0513 112.266 17.7233 112.644 17.0674 112.644H15.2812C14.6253 112.644 14.2974 112.266 14.2974 111.509V102.684H8.6665V112.795C8.6665 113.552 8.33854 113.931 7.68262 113.931H5.89648C5.24056 113.931 4.9126 113.552 4.9126 112.795L4.9126 99.3237ZM4.9126 118.699C4.9126 117.992 5.29102 117.639 6.04785 117.639H25.4834C26.2402 117.639 26.6187 117.992 26.6187 118.699V125.707C26.6187 128.825 26.1343 131.101 25.1655 132.534C24.2069 133.967 22.6427 134.683 20.4731 134.683C18.8586 134.683 17.5719 134.103 16.6133 132.942C15.6546 131.782 15.0189 130.309 14.7061 128.522H14.6758C14.3125 129.491 13.8079 130.223 13.1621 130.717C12.5163 131.212 11.9512 131.615 11.4668 131.928L6.21436 135.258C5.34652 135.813 4.9126 135.622 4.9126 134.683V132.049C4.9126 131.494 5.21029 131.04 5.80566 130.687L10.9067 127.629C11.4517 127.296 12.047 126.686 12.6929 125.798C13.3488 124.92 13.6768 124.047 13.6768 123.179V122.059H6.04785C5.29102 122.059 4.9126 121.706 4.9126 121V118.699ZM17.4307 122.059V124.769C17.4307 126.787 17.6577 128.22 18.1118 129.067C18.576 129.925 19.3076 130.354 20.3066 130.354C21.3965 130.354 22.1029 129.94 22.4258 129.113C22.7588 128.295 22.9253 127.09 22.9253 125.495V122.059H17.4307ZM4.9126 149.896C4.9126 149.139 5.24056 148.76 5.89648 148.76H6.62305C7.14779 148.76 7.66748 149.002 8.18213 149.487L12.9502 154.013C14.3932 155.375 15.6748 156.621 16.7949 157.751C17.9251 158.882 19.0654 159.447 20.2158 159.447C21.3662 159.447 22.2088 159.159 22.7437 158.584C23.2886 158.019 23.561 157.297 23.561 156.419C23.561 155.027 23.2381 154.058 22.5923 153.513C21.9465 152.968 21.2552 152.575 20.5186 152.333C19.8021 152.1 19.5448 151.677 19.7466 151.061L20.2612 149.532C20.4328 149.038 20.9071 148.896 21.6841 149.108C23.1271 149.502 24.3633 150.304 25.3926 151.515C26.432 152.726 26.9517 154.522 26.9517 156.904C26.9517 159.386 26.3109 161.188 25.0293 162.308C23.7578 163.428 22.3753 163.988 20.8818 163.988C18.9242 163.988 17.2036 163.17 15.7202 161.536C14.2469 159.901 12.8089 158.417 11.4062 157.085L8.69678 154.512H8.60596C8.64632 155.118 8.6665 155.622 8.6665 156.026L8.6665 163.095C8.6665 163.852 8.33854 164.23 7.68262 164.23H5.89648C5.24056 164.23 4.9126 163.852 4.9126 163.095L4.9126 149.896ZM15.6748 166.924C19.7617 166.924 22.6629 167.56 24.3784 168.832C26.0939 170.103 26.9517 172.051 26.9517 174.674C26.9517 177.298 26.0939 179.246 24.3784 180.517C22.6629 181.789 19.7617 182.424 15.6748 182.424C11.5879 182.424 8.68669 181.789 6.97119 180.517C5.2557 179.246 4.39795 177.298 4.39795 174.674C4.39795 172.051 5.2557 170.103 6.97119 168.832C8.68669 167.56 11.5879 166.924 15.6748 166.924ZM15.6748 171.405C13.8079 171.405 12.0117 171.556 10.2861 171.859C8.56055 172.172 7.69775 173.11 7.69775 174.674C7.69775 176.238 8.56055 177.172 10.2861 177.475C12.0117 177.787 13.8079 177.944 15.6748 177.944C17.5417 177.944 19.3379 177.787 21.0635 177.475C22.7891 177.172 23.6519 176.238 23.6519 174.674C23.6519 173.11 22.7891 172.172 21.0635 171.859C19.3379 171.556 17.5417 171.405 15.6748 171.405ZM4.9126 186.224C4.9126 185.467 5.24056 185.088 5.89648 185.088H6.62305C7.14779 185.088 7.66748 185.331 8.18213 185.815L12.9502 190.341C14.3932 191.703 15.6748 192.949 16.7949 194.08C17.9251 195.21 19.0654 195.775 20.2158 195.775C21.3662 195.775 22.2088 195.487 22.7437 194.912C23.2886 194.347 23.561 193.625 23.561 192.748C23.561 191.355 23.2381 190.386 22.5923 189.841C21.9465 189.296 21.2552 188.903 20.5186 188.661C19.8021 188.429 19.5448 188.005 19.7466 187.389L20.2612 185.86C20.4328 185.366 20.9071 185.225 21.6841 185.437C23.1271 185.83 24.3633 186.632 25.3926 187.843C26.432 189.054 26.9517 190.85 26.9517 193.232C26.9517 195.714 26.3109 197.516 25.0293 198.636C23.7578 199.756 22.3753 200.316 20.8818 200.316C18.9242 200.316 17.2036 199.499 15.7202 197.864C14.2469 196.229 12.8089 194.746 11.4062 193.414L8.69678 190.84H8.60596C8.64632 191.446 8.6665 191.95 8.6665 192.354L8.6665 199.423C8.6665 200.18 8.33854 200.558 7.68262 200.558H5.89648C5.24056 200.558 4.9126 200.18 4.9126 199.423L4.9126 186.224ZM15.6748 203.252C19.7617 203.252 22.6629 203.888 24.3784 205.16C26.0939 206.431 26.9517 208.379 26.9517 211.002C26.9517 213.626 26.0939 215.574 24.3784 216.845C22.6629 218.117 19.7617 218.752 15.6748 218.752C11.5879 218.752 8.68669 218.117 6.97119 216.845C5.2557 215.574 4.39795 213.626 4.39795 211.002C4.39795 208.379 5.2557 206.431 6.97119 205.16C8.68669 203.888 11.5879 203.252 15.6748 203.252ZM15.6748 207.733C13.8079 207.733 12.0117 207.884 10.2861 208.187C8.56055 208.5 7.69775 209.438 7.69775 211.002C7.69775 212.567 8.56055 213.5 10.2861 213.803C12.0117 214.116 13.8079 214.272 15.6748 214.272C17.5417 214.272 19.3379 214.116 21.0635 213.803C22.7891 213.5 23.6519 212.567 23.6519 211.002C23.6519 209.438 22.7891 208.5 21.0635 208.187C19.3379 207.884 17.5417 207.733 15.6748 207.733Z" fill="white" fill-opacity="0.22" shape-rendering="crispEdges"/>
<path d="M6.53223 1.8584L6.13377 1.55635L6.13321 1.5571L6.53223 1.8584ZM7.97021 1.4043L7.69286 1.82032L7.69369 1.82087L7.97021 1.4043ZM9.72607 2.56982L10.0034 2.1538L10.0026 2.15325L9.72607 2.56982ZM9.81689 4.25L9.40701 3.96365L9.40659 3.96425L9.81689 4.25ZM8.59082 6.45996L8.13769 6.2485L8.13495 6.25457L8.59082 6.45996ZM9.15088 12.8931L8.85368 13.2952L9.15088 12.8931ZM12.8442 12.439L13.264 12.7106L12.8442 12.439ZM13.4043 11.3794L13.8658 11.5717L13.8665 11.5701L13.4043 11.3794ZM14.1763 8.97266L13.694 8.84066L13.6924 8.84665L14.1763 8.97266ZM15.1147 6.12695L15.581 6.30745L15.5813 6.30682L15.1147 6.12695ZM26.5884 13.3774L26.1079 13.2391L26.1076 13.2401L26.5884 13.3774ZM25.2261 16.2534L24.8439 15.931L24.8435 15.9315L25.2261 16.2534ZM23.7729 16.7227L24.0715 16.3215L24.0712 16.3213L23.7729 16.7227ZM22.123 15.4966L22.4213 15.0953L22.4184 15.0932L22.123 15.4966ZM21.9868 13.8315L21.5737 13.5499L21.5736 13.5501L21.9868 13.8315ZM23.001 12L22.5514 11.7811L22.5503 11.7834L23.001 12ZM23.4097 7.94336L23.9 7.8453L23.8996 7.84338L23.4097 7.94336ZM22.6831 6.62646L23.0367 6.27291L22.6831 6.62646ZM19.9282 6.4751L19.6103 6.08909L19.6047 6.09384L19.9282 6.4751ZM19.1714 7.41357L18.724 7.1899L18.719 7.20068L19.1714 7.41357ZM18.7627 8.45801L19.2384 8.61216L19.2397 8.60792L18.7627 8.45801ZM17.8242 11.3794L17.3477 11.228L17.3461 11.2331L17.8242 11.3794ZM16.9463 13.7559L17.4023 13.961L17.4032 13.9589L16.9463 13.7559ZM13.7222 17.3887L13.5224 16.9303L13.5175 16.9325L13.7222 17.3887ZM6.89551 16.3745L6.5454 16.7315L6.54711 16.7332L6.89551 16.3745ZM4.86719 12.9385L5.3534 12.8218L5.35226 12.8172L4.86719 12.9385ZM4.9126 4.9917L5.38993 5.14059L5.39115 5.13658L4.9126 4.9917ZM6.93068 2.16045C7.13793 1.88705 7.29843 1.78387 7.398 1.75243C7.46935 1.72989 7.55436 1.72799 7.69286 1.82032L8.24756 0.988272C7.90169 0.75769 7.50485 0.670008 7.09687 0.798843C6.71711 0.918768 6.40081 1.20409 6.13377 1.55635L6.93068 2.16045ZM7.69369 1.82087L9.44955 2.9864L10.0026 2.15325L8.24674 0.98772L7.69369 1.82087ZM9.44872 2.98585C9.63916 3.11281 9.67626 3.21861 9.6809 3.30445C9.68734 3.42347 9.63621 3.63559 9.40701 3.96365L10.2268 4.53635C10.5122 4.12776 10.7033 3.69152 10.6794 3.25048C10.6538 2.77626 10.3882 2.4103 10.0034 2.1538L9.44872 2.98585ZM9.40659 3.96425C8.99114 4.5608 8.56873 5.32494 8.13773 6.24852L9.04391 6.6714C9.46057 5.77857 9.85554 5.0694 10.2272 4.53575L9.40659 3.96425ZM8.13495 6.25457C7.69207 7.23756 7.47021 8.27128 7.47021 9.35107H8.47021C8.47021 8.41264 8.6621 7.51895 9.04669 6.66535L8.13495 6.25457ZM7.47021 9.35107C7.47021 10.0959 7.55538 10.8173 7.72689 11.514L8.69791 11.275C8.54651 10.66 8.47021 10.019 8.47021 9.35107H7.47021ZM7.72689 11.514C7.91125 12.263 8.28017 12.8713 8.85368 13.2952L9.44807 12.491C9.0932 12.2287 8.83647 11.8379 8.69791 11.275L7.72689 11.514ZM8.85368 13.2952C9.41267 13.7083 10.0695 13.9077 10.8008 13.9077V12.9077C10.2606 12.9077 9.81748 12.764 9.44807 12.491L8.85368 13.2952ZM10.8008 13.9077C11.31 13.9077 11.7798 13.8228 12.1984 13.6381L11.7948 12.7232C11.5272 12.8413 11.1997 12.9077 10.8008 12.9077V13.9077ZM12.1984 13.6381C12.6387 13.4439 12.994 13.1279 13.264 12.7106L12.4245 12.1673C12.2505 12.4362 12.0406 12.6147 11.7948 12.7232L12.1984 13.6381ZM13.264 12.7106C13.5017 12.3433 13.7025 11.9637 13.8658 11.5717L12.9428 11.1871C12.8033 11.5217 12.6308 11.8484 12.4245 12.1673L13.264 12.7106ZM13.8665 11.5701C14.1405 10.9062 14.4044 10.0805 14.6601 9.09866L13.6924 8.84665C13.4435 9.80232 13.1929 10.5811 12.9421 11.1887L13.8665 11.5701ZM14.6585 9.10464C14.9164 8.16262 15.2238 7.23024 15.581 6.30745L14.6485 5.94646C14.2791 6.90062 13.9609 7.86537 13.694 8.84067L14.6585 9.10464ZM15.5813 6.30682C15.8854 5.5181 16.303 4.79681 16.835 4.14126L16.0585 3.51109C15.4604 4.24811 14.99 5.06067 14.6482 5.94709L15.5813 6.30682ZM16.835 4.14126C17.3636 3.48994 17.95 2.99477 18.5925 2.64597L18.1155 1.76712C17.3452 2.18525 16.6601 2.76983 16.0585 3.51109L16.835 4.14126ZM18.5925 2.64597C19.1993 2.31657 20.0509 2.13135 21.1846 2.13135V1.13135C19.9569 1.13135 18.9214 1.32959 18.1155 1.76712L18.5925 2.64597ZM21.1846 2.13135C22.4682 2.13135 23.5476 2.5426 24.4508 3.36362L25.1234 2.62368C24.0285 1.6283 22.7063 1.13135 21.1846 1.13135V2.13135ZM24.4508 3.36362C25.3842 4.21215 25.9666 5.17114 26.2232 6.24333L27.1957 6.01058C26.8872 4.72144 26.1881 3.59156 25.1234 2.62368L24.4508 3.36362ZM26.2232 6.24333C26.4967 7.38629 26.6333 8.538 26.6333 9.69922H27.6333C27.6333 8.45875 27.4873 7.22894 27.1957 6.01058L26.2232 6.24333ZM26.6333 9.69922C26.6333 10.8386 26.4595 12.0181 26.1079 13.2391L27.0688 13.5158C27.4438 12.214 27.6333 10.9413 27.6333 9.69922H26.6333ZM26.1076 13.2401C25.7539 14.4779 25.3248 15.3611 24.8439 15.931L25.6082 16.5759C26.2172 15.8541 26.6963 14.8199 27.0691 13.5148L26.1076 13.2401ZM24.8435 15.9315C24.602 16.2185 24.421 16.3352 24.308 16.3717C24.2308 16.3967 24.1682 16.3935 24.0715 16.3215L23.4744 17.1238C23.8116 17.3747 24.2082 17.4548 24.6153 17.3233C24.9867 17.2034 25.3153 16.9241 25.6087 16.5753L24.8435 15.9315ZM24.0712 16.3213L22.4213 15.0953L21.8248 15.8979L23.4747 17.124L24.0712 16.3213ZM22.4184 15.0932C22.2204 14.9482 22.1714 14.8263 22.1635 14.7292C22.1538 14.6113 22.1957 14.413 22.4001 14.113L21.5736 13.5501C21.3036 13.9464 21.1311 14.3737 21.1668 14.8108C21.2043 15.2688 21.4606 15.6313 21.8277 15.9L22.4184 15.0932ZM22.3999 14.1132C22.7226 13.6399 23.0731 13.0044 23.4516 12.2166L22.5503 11.7834C22.1822 12.5496 21.8565 13.1351 21.5737 13.5499L22.3999 14.1132ZM23.4505 12.2189C23.8565 11.385 24.061 10.5081 24.061 9.59326H23.061C23.061 10.3536 22.8922 11.0811 22.5514 11.7811L23.4505 12.2189ZM24.061 9.59326C24.061 8.96996 24.0082 8.38671 23.9 7.8453L22.9194 8.04142C23.0129 8.50912 23.061 9.0258 23.061 9.59326H24.061ZM23.8996 7.84338C23.7776 7.24561 23.484 6.72029 23.0367 6.27291L22.3296 6.98002C22.6491 7.29957 22.8399 7.65218 22.9198 8.04334L23.8996 7.84338ZM23.0367 6.27291C22.5551 5.79137 21.9517 5.55127 21.2603 5.55127V6.55127C21.699 6.55127 22.0442 6.69463 22.3296 6.98002L23.0367 6.27291ZM21.2603 5.55127C20.6265 5.55127 20.0619 5.7173 19.6104 6.08913L20.2461 6.86106C20.4808 6.66779 20.8042 6.55127 21.2603 6.55127V5.55127ZM19.6047 6.09384C19.2274 6.41404 18.9298 6.77871 18.7242 7.18997L19.6186 7.63718C19.7561 7.36224 19.9631 7.10126 20.2517 6.85635L19.6047 6.09384ZM18.719 7.20068C18.5481 7.5637 18.4036 7.93286 18.2857 8.30809L19.2397 8.60792C19.3438 8.27677 19.4717 7.94965 19.6238 7.62647L18.719 7.20068ZM18.287 8.30386C17.9336 9.3944 17.6205 10.3691 17.3477 11.228L18.3008 11.5308C18.5729 10.6742 18.8854 9.70131 19.2383 8.61215L18.287 8.30386ZM17.3461 11.2331C17.0889 12.0739 16.8031 12.8469 16.4894 13.5528L17.4032 13.9589C17.7353 13.2117 18.0348 12.4003 18.3024 11.5256L17.3461 11.2331ZM16.4903 13.5507C16.0458 14.5386 15.6143 15.2635 15.2028 15.7482L15.9651 16.3954C16.4619 15.8104 16.9386 14.9913 17.4022 13.961L16.4903 13.5507ZM15.2028 15.7482C14.8079 16.2133 14.2549 16.611 13.5224 16.9303L13.922 17.847C14.7636 17.4801 15.4518 16.9999 15.9651 16.3954L15.2028 15.7482ZM13.5175 16.9325C12.8093 17.2503 11.944 17.4185 10.9067 17.4185V18.4185C12.0492 18.4185 13.0608 18.2335 13.9269 17.8449L13.5175 16.9325ZM10.9067 17.4185C9.409 17.4185 8.20106 16.9457 7.2439 16.0159L6.54711 16.7332C7.7091 17.8619 9.17531 18.4185 10.9067 18.4185V17.4185ZM7.24561 16.0175C6.25399 15.045 5.6314 13.9802 5.35338 12.8218L4.38099 13.0552C4.70845 14.4196 5.43806 15.6454 6.5454 16.7315L7.24561 16.0175ZM5.35226 12.8172C5.04853 11.6023 4.89795 10.422 4.89795 9.27539H3.89795C3.89795 10.5103 4.06019 11.772 4.38212 13.0597L5.35226 12.8172ZM4.89795 9.27539C4.89795 7.54649 5.06754 6.17409 5.38992 5.14059L4.43528 4.84281C4.07146 6.00918 3.89795 7.49257 3.89795 9.27539H4.89795ZM5.39115 5.13658C5.70578 4.09734 6.21723 3.10528 6.93125 2.1597L6.13321 1.5571C5.35373 2.58938 4.78543 3.68619 4.43405 4.84682L5.39115 5.13658ZM8.98437 27.0156L8.60539 26.6894L8.60105 26.6946L8.98437 27.0156ZM8.98437 32.4497L8.60305 32.7731L8.60341 32.7735L8.98437 32.4497ZM6.51709 35.8403L6.15385 36.1839L6.15508 36.1852L6.51709 35.8403ZM6.51709 23.6401L6.15508 23.2952L6.15386 23.2965L6.51709 23.6401ZM13.9492 21.8999H25.7861V20.8999H13.9492V21.8999ZM25.7861 21.8999C25.9501 21.8999 25.9956 21.946 26.0174 21.9737C26.0572 22.0244 26.1187 22.1582 26.1187 22.4595H27.1187C27.1187 22.0544 27.0414 21.6584 26.8037 21.3559C26.5479 21.0304 26.1771 20.8999 25.7861 20.8999V21.8999ZM26.1187 22.4595V24.7603H27.1187V22.4595H26.1187ZM26.1187 24.7603C26.1187 25.0616 26.0572 25.1954 26.0174 25.246C25.9956 25.2737 25.9501 25.3198 25.7861 25.3198V26.3198C26.1771 26.3198 26.5479 26.1893 26.8037 25.8638C27.0414 25.5613 27.1187 25.1653 27.1187 24.7603H26.1187ZM25.7861 25.3198H14.1006V26.3198H25.7861V25.3198ZM14.1006 25.3198C12.7186 25.3198 11.5689 25.4205 10.6643 25.6319C9.77068 25.8408 9.05013 26.1728 8.60542 26.6894L9.36333 27.3418C9.60482 27.0613 10.0801 26.7954 10.8919 26.6057C11.6927 26.4185 12.7579 26.3198 14.1006 26.3198V25.3198ZM8.60105 26.6946C7.85313 27.5876 7.47021 28.6083 7.47021 29.7402H8.47021C8.47021 28.8539 8.7634 28.0582 9.3677 27.3367L8.60105 26.6946ZM7.47021 29.7402C7.47021 30.8724 7.85332 31.8891 8.60305 32.7731L9.3657 32.1263C8.76322 31.4159 8.47021 30.6263 8.47021 29.7402H7.47021ZM8.60341 32.7735C9.04761 33.2961 9.76831 33.6327 10.6629 33.8445C11.5681 34.0587 12.7184 34.1606 14.1006 34.1606V33.1606C12.7582 33.1606 11.6935 33.0608 10.8932 32.8714C10.0824 32.6794 9.60733 32.4106 9.36534 32.1259L8.60341 32.7735ZM14.1006 34.1606L25.7861 34.1606V33.1606L14.1006 33.1606V34.1606ZM25.7861 34.1606C25.9501 34.1606 25.9956 34.2067 26.0174 34.2344C26.0572 34.2851 26.1187 34.4189 26.1187 34.7202H27.1187C27.1187 34.3152 27.0414 33.9192 26.8037 33.6166C26.5479 33.2911 26.1771 33.1606 25.7861 33.1606V34.1606ZM26.1187 34.7202V37.021H27.1187V34.7202H26.1187ZM26.1187 37.021C26.1187 37.3223 26.0572 37.4561 26.0174 37.5068C25.9956 37.5345 25.9501 37.5806 25.7861 37.5806V38.5806C26.1771 38.5806 26.5479 38.4501 26.8037 38.1246C27.0414 37.8221 27.1187 37.4261 27.1187 37.021H26.1187ZM25.7861 37.5806L13.9492 37.5806L13.9492 38.5806L25.7861 38.5806V37.5806ZM13.9492 37.5806C10.4624 37.5806 8.15897 36.8389 6.8791 35.4954L6.15508 36.1852C7.72091 37.8288 10.3722 38.5806 13.9492 38.5806L13.9492 37.5806ZM6.88032 35.4967C5.57608 34.118 4.89795 32.2193 4.89795 29.7402H3.89795C3.89795 32.4076 4.63258 34.5757 6.15386 36.1839L6.88032 35.4967ZM4.89795 29.7402C4.89795 27.2611 5.57608 25.3625 6.88032 23.9837L6.15386 23.2965C4.63258 24.9047 3.89795 27.0729 3.89795 29.7402H4.89795ZM6.8791 23.985C8.15897 22.6416 10.4624 21.8999 13.9492 21.8999V20.8999C10.3722 20.8999 7.72091 21.6517 6.15508 23.2952L6.8791 23.985ZM25.4077 49.6299L25.5553 50.1076L25.5569 50.1071L25.4077 49.6299ZM12.1328 53.7319L11.9852 53.2542L11.9822 53.2551L12.1328 53.7319ZM10.71 54.1104L10.617 53.6191L10.6145 53.6195L10.71 54.1104ZM9.4082 54.292L9.35845 53.7945L8.9082 53.8395V54.292H9.4082ZM9.4082 54.3828H8.9082V54.8353L9.35845 54.8803L9.4082 54.3828ZM10.71 54.5645L10.6145 55.0553L10.617 55.0557L10.71 54.5645ZM12.1328 54.9429L11.9822 55.4197L11.9852 55.4206L12.1328 54.9429ZM25.4077 59.0449L25.5569 58.5677L25.5553 58.5672L25.4077 59.0449ZM20.3672 61.4062L20.3257 61.9045L20.8672 61.9496V61.4062L20.3672 61.4062ZM20.3672 61.3003L20.8672 61.3003V60.9309L20.5141 60.8224L20.3672 61.3003ZM6.13867 56.9258L5.99121 57.4035L5.99174 57.4037L6.13867 56.9258ZM6.13867 51.749L5.99174 51.2711L5.99121 51.2713L6.13867 51.749ZM20.3672 47.3745L20.5141 47.8524L20.8672 47.7439V47.3745L20.3672 47.3745ZM20.3672 47.2686L20.8672 47.2686V46.7252L20.3257 46.7703L20.3672 47.2686ZM5.4126 43.9839C5.4126 43.7169 5.48247 43.6062 5.53757 43.5547C5.59917 43.4972 5.73826 43.4243 6.04785 43.4243V42.4243C5.60061 42.4243 5.17207 42.528 4.85525 42.8237C4.53193 43.1254 4.4126 43.5444 4.4126 43.9839H5.4126ZM6.04785 43.4243L25.4834 43.4243V42.4243L6.04785 42.4243V43.4243ZM25.4834 43.4243C25.793 43.4243 25.9321 43.4972 25.9937 43.5547C26.0488 43.6062 26.1187 43.7169 26.1187 43.9839H27.1187C27.1187 43.5444 26.9993 43.1254 26.676 42.8237C26.3592 42.528 25.9306 42.4243 25.4834 42.4243V43.4243ZM26.1187 43.9839V48.3735H27.1187V43.9839H26.1187ZM26.1187 48.3735C26.1187 48.5377 26.0673 48.664 25.9559 48.7796C25.8328 48.9073 25.6161 49.0409 25.2586 49.1526L25.5569 50.1071C26.0067 49.9666 26.3954 49.7647 26.6759 49.4736C26.9682 49.1703 27.1187 48.7947 27.1187 48.3735H26.1187ZM25.2601 49.1522L11.9852 53.2542L12.2804 54.2096L25.5553 50.1076L25.2601 49.1522ZM11.9822 53.2551C11.4164 53.4338 10.9631 53.5536 10.617 53.6191L10.8029 54.6016C11.2036 54.5258 11.6989 54.3933 12.2834 54.2087L11.9822 53.2551ZM10.6145 53.6195C10.2707 53.6864 9.85285 53.745 9.35845 53.7945L9.45795 54.7895C9.97267 54.738 10.4226 54.6756 10.8054 54.6012L10.6145 53.6195ZM8.9082 54.292V54.3828H9.9082V54.292H8.9082ZM9.35845 54.8803C9.85285 54.9298 10.2707 54.9884 10.6145 55.0553L10.8054 54.0736C10.4226 53.9992 9.97267 53.9368 9.45795 53.8853L9.35845 54.8803ZM10.617 55.0557C10.9631 55.1212 11.4164 55.241 11.9822 55.4197L12.2834 54.4661C11.6989 54.2815 11.2036 54.149 10.8029 54.0732L10.617 55.0557ZM11.9852 55.4206L25.2601 59.5226L25.5553 58.5672L12.2804 54.4652L11.9852 55.4206ZM25.2586 59.5222C25.6161 59.6339 25.8328 59.7675 25.9559 59.8952C26.0673 60.0108 26.1187 60.1371 26.1187 60.3013H27.1187C27.1187 59.8801 26.9682 59.5045 26.6759 59.2012C26.3954 58.9101 26.0067 58.7083 25.5569 58.5677L25.2586 59.5222ZM26.1187 60.3013V64.6909H27.1187V60.3013H26.1187ZM26.1187 64.6909C26.1187 64.9579 26.0488 65.0686 25.9937 65.1201C25.9321 65.1776 25.793 65.2505 25.4834 65.2505V66.2505C25.9306 66.2505 26.3592 66.1468 26.676 65.8511C26.9993 65.5494 27.1187 65.1304 27.1187 64.6909H26.1187ZM25.4834 65.2505H6.04785V66.2505H25.4834V65.2505ZM6.04785 65.2505C5.73826 65.2505 5.59917 65.1776 5.53757 65.1201C5.48247 65.0686 5.4126 64.9579 5.4126 64.6909L4.4126 64.6909C4.4126 65.1304 4.53193 65.5494 4.85525 65.8511C5.17207 66.1468 5.60061 66.2505 6.04785 66.2505V65.2505ZM5.4126 64.6909V62.3901H4.4126V64.6909L5.4126 64.6909ZM5.4126 62.3901C5.4126 62.1232 5.48247 62.0124 5.53757 61.961C5.59917 61.9035 5.73826 61.8306 6.04785 61.8306V60.8306C5.60061 60.8306 5.17207 60.9342 4.85525 61.2299C4.53193 61.5317 4.4126 61.9507 4.4126 62.3901H5.4126ZM6.04785 61.8306H18.5508V60.8306H6.04785V61.8306ZM18.5508 61.8306C19.1423 61.8306 19.734 61.8552 20.3257 61.9045L20.4087 60.908C19.7895 60.8564 19.1702 60.8306 18.5508 60.8306V61.8306ZM20.8672 61.4062V61.3003L19.8672 61.3003V61.4062L20.8672 61.4062ZM20.5141 60.8224L6.28561 56.4479L5.99174 57.4037L20.2203 61.7782L20.5141 60.8224ZM6.28613 56.448C5.92627 56.337 5.70787 56.2008 5.58309 56.0683C5.46923 55.9474 5.4126 55.809 5.4126 55.624H4.4126C4.4126 56.0546 4.56031 56.4409 4.85514 56.7539C5.13905 57.0554 5.53369 57.2623 5.99121 57.4035L6.28613 56.448ZM5.4126 55.624L5.4126 53.0508H4.4126L4.4126 55.624H5.4126ZM5.4126 53.0508C5.4126 52.8658 5.46923 52.7274 5.58309 52.6065C5.70787 52.474 5.92627 52.3379 6.28613 52.2268L5.99121 51.2713C5.53369 51.4125 5.13905 51.6194 4.85514 51.9209C4.56031 52.2339 4.4126 52.6202 4.4126 53.0508H5.4126ZM6.28561 52.2269L20.5141 47.8524L20.2203 46.8966L5.99174 51.2711L6.28561 52.2269ZM20.8672 47.3745V47.2686L19.8672 47.2686V47.3745L20.8672 47.3745ZM20.3257 46.7703C19.734 46.8196 19.1423 46.8442 18.5508 46.8442V47.8442C19.1702 47.8442 19.7895 47.8184 20.4087 47.7668L20.3257 46.7703ZM18.5508 46.8442H6.04785V47.8442H18.5508V46.8442ZM6.04785 46.8442C5.73826 46.8442 5.59917 46.7713 5.53757 46.7138C5.48247 46.6624 5.4126 46.5516 5.4126 46.2847H4.4126C4.4126 46.7241 4.53193 47.1431 4.85525 47.4449C5.17207 47.7406 5.60061 47.8442 6.04785 47.8442V46.8442ZM5.4126 46.2847V43.9839H4.4126V46.2847H5.4126ZM25.4077 77.2998L25.5553 77.7775L25.5569 77.777L25.4077 77.2998ZM12.1328 81.4019L11.9852 80.9241L11.9822 80.9251L12.1328 81.4019ZM10.71 81.7803L10.617 81.289L10.6145 81.2895L10.71 81.7803ZM9.4082 81.9619L9.35845 81.4644L8.9082 81.5094V81.9619H9.4082ZM9.4082 82.0527H8.9082V82.5052L9.35845 82.5503L9.4082 82.0527ZM10.71 82.2344L10.6145 82.7252L10.617 82.7257L10.71 82.2344ZM12.1328 82.6128L11.9822 83.0896L11.9852 83.0905L12.1328 82.6128ZM25.4077 86.7148L25.5569 86.2376L25.5553 86.2371L25.4077 86.7148ZM20.3672 89.0762L20.3257 89.5744L20.8672 89.6196V89.0762H20.3672ZM20.3672 88.9702H20.8672V88.6008L20.5141 88.4923L20.3672 88.9702ZM6.13867 84.5957L5.99121 85.0735L5.99174 85.0736L6.13867 84.5957ZM6.13867 79.4189L5.99174 78.941L5.99121 78.9412L6.13867 79.4189ZM20.3672 75.0444L20.5141 75.5224L20.8672 75.4138V75.0444H20.3672ZM20.3672 74.9385H20.8672V74.3951L20.3257 74.4402L20.3672 74.9385ZM5.4126 71.6538C5.4126 71.3869 5.48247 71.2761 5.53757 71.2247C5.59917 71.1672 5.73826 71.0942 6.04785 71.0942V70.0942C5.60061 70.0942 5.17207 70.1979 4.85525 70.4936C4.53193 70.7954 4.4126 71.2144 4.4126 71.6538L5.4126 71.6538ZM6.04785 71.0942H25.4834V70.0942H6.04785V71.0942ZM25.4834 71.0942C25.793 71.0942 25.9321 71.1672 25.9937 71.2247C26.0488 71.2761 26.1187 71.3869 26.1187 71.6538H27.1187C27.1187 71.2144 26.9993 70.7954 26.676 70.4936C26.3592 70.1979 25.9306 70.0942 25.4834 70.0942V71.0942ZM26.1187 71.6538L26.1187 76.0435H27.1187L27.1187 71.6538H26.1187ZM26.1187 76.0435C26.1187 76.2076 26.0673 76.334 25.9559 76.4495C25.8328 76.5772 25.6161 76.7109 25.2586 76.8226L25.5569 77.777C26.0067 77.6365 26.3954 77.4346 26.6759 77.1435C26.9682 76.8403 27.1187 76.4646 27.1187 76.0435H26.1187ZM25.2601 76.8221L11.9852 80.9241L12.2804 81.8796L25.5553 77.7775L25.2601 76.8221ZM11.9822 80.9251C11.4164 81.1038 10.9631 81.2235 10.617 81.289L10.8029 82.2716C11.2036 82.1957 11.6989 82.0632 12.2834 81.8786L11.9822 80.9251ZM10.6145 81.2895C10.2707 81.3563 9.85285 81.415 9.35845 81.4644L9.45795 82.4594C9.97267 82.408 10.4226 82.3455 10.8054 82.2711L10.6145 81.2895ZM8.9082 81.9619V82.0527H9.9082V81.9619H8.9082ZM9.35845 82.5503C9.85285 82.5997 10.2707 82.6583 10.6145 82.7252L10.8054 81.7436C10.4226 81.6691 9.97267 81.6067 9.45795 81.5552L9.35845 82.5503ZM10.617 82.7257C10.9631 82.7911 11.4164 82.9109 11.9822 83.0896L12.2834 82.136C11.6989 81.9514 11.2036 81.8189 10.8029 81.7431L10.617 82.7257ZM11.9852 83.0905L25.2601 87.1926L25.5553 86.2371L12.2804 82.1351L11.9852 83.0905ZM25.2586 87.1921C25.6161 87.3038 25.8328 87.4374 25.9559 87.5651C26.0673 87.6807 26.1187 87.8071 26.1187 87.9712H27.1187C27.1187 87.55 26.9682 87.1744 26.6759 86.8712C26.3954 86.5801 26.0067 86.3782 25.5569 86.2376L25.2586 87.1921ZM26.1187 87.9712V92.3608H27.1187V87.9712H26.1187ZM26.1187 92.3608C26.1187 92.6278 26.0488 92.7386 25.9937 92.79C25.9321 92.8475 25.793 92.9204 25.4834 92.9204V93.9204C25.9306 93.9204 26.3592 93.8167 26.676 93.521C26.9993 93.2193 27.1187 92.8003 27.1187 92.3608H26.1187ZM25.4834 92.9204H6.04785V93.9204H25.4834V92.9204ZM6.04785 92.9204C5.73826 92.9204 5.59917 92.8475 5.53757 92.79C5.48247 92.7386 5.4126 92.6278 5.4126 92.3608L4.4126 92.3608C4.4126 92.8003 4.53193 93.2193 4.85525 93.521C5.17207 93.8167 5.60061 93.9204 6.04785 93.9204V92.9204ZM5.4126 92.3608V90.0601L4.4126 90.0601V92.3608L5.4126 92.3608ZM5.4126 90.0601C5.4126 89.7931 5.48247 89.6823 5.53757 89.6309C5.59917 89.5734 5.73826 89.5005 6.04785 89.5005V88.5005C5.60061 88.5005 5.17207 88.6042 4.85525 88.8999C4.53193 89.2016 4.4126 89.6206 4.4126 90.0601L5.4126 90.0601ZM6.04785 89.5005H18.5508V88.5005H6.04785V89.5005ZM18.5508 89.5005C19.1423 89.5005 19.734 89.5251 20.3257 89.5744L20.4087 88.5779C19.7895 88.5263 19.1702 88.5005 18.5508 88.5005V89.5005ZM20.8672 89.0762V88.9702H19.8672V89.0762H20.8672ZM20.5141 88.4923L6.28561 84.1178L5.99174 85.0736L20.2203 89.4481L20.5141 88.4923ZM6.28613 84.1179C5.92627 84.0069 5.70787 83.8707 5.58309 83.7382C5.46923 83.6173 5.4126 83.4789 5.4126 83.2939L4.4126 83.2939C4.4126 83.7245 4.56031 84.1108 4.85514 84.4239C5.13905 84.7253 5.53369 84.9323 5.99121 85.0735L6.28613 84.1179ZM5.4126 83.2939V80.7207L4.4126 80.7207V83.2939L5.4126 83.2939ZM5.4126 80.7207C5.4126 80.5357 5.46923 80.3973 5.58309 80.2764C5.70787 80.1439 5.92627 80.0078 6.28613 79.8967L5.99121 78.9412C5.53369 79.0824 5.13905 79.2893 4.85514 79.5908C4.56031 79.9038 4.4126 80.2901 4.4126 80.7207L5.4126 80.7207ZM6.28561 79.8969L20.5141 75.5224L20.2203 74.5665L5.99174 78.941L6.28561 79.8969ZM20.8672 75.0444V74.9385H19.8672V75.0444H20.8672ZM20.3257 74.4402C19.734 74.4895 19.1423 74.5142 18.5508 74.5142V75.5142C19.1702 75.5142 19.7895 75.4884 20.4087 75.4367L20.3257 74.4402ZM18.5508 74.5142H6.04785V75.5142H18.5508V74.5142ZM6.04785 74.5142C5.73826 74.5142 5.59917 74.4412 5.53757 74.3837C5.48247 74.3323 5.4126 74.2215 5.4126 73.9546L4.4126 73.9546C4.4126 74.394 4.53193 74.813 4.85525 75.1148C5.17207 75.4105 5.60061 75.5142 6.04785 75.5142V74.5142ZM5.4126 73.9546V71.6538L4.4126 71.6538V73.9546L5.4126 73.9546ZM22.8647 102.684H23.3647V102.184H22.8647V102.684ZM18.0513 102.684V102.184H17.5513V102.684H18.0513ZM14.2974 102.684H14.7974V102.184H14.2974V102.684ZM8.6665 102.684V102.184H8.1665V102.684H8.6665ZM5.4126 99.3237C5.4126 99.0568 5.48247 98.946 5.53757 98.8946C5.59917 98.8371 5.73826 98.7642 6.04785 98.7642V97.7642C5.60061 97.7642 5.17207 97.8678 4.85525 98.1635C4.53193 98.4653 4.4126 98.8843 4.4126 99.3237L5.4126 99.3237ZM6.04785 98.7642H25.4834V97.7642H6.04785V98.7642ZM25.4834 98.7642C25.793 98.7642 25.9321 98.8371 25.9937 98.8946C26.0488 98.946 26.1187 99.0568 26.1187 99.3237H27.1187C27.1187 98.8843 26.9993 98.4653 26.676 98.1635C26.3592 97.8678 25.9306 97.7642 25.4834 97.7642V98.7642ZM26.1187 99.3237L26.1187 112.311H27.1187L27.1187 99.3237H26.1187ZM26.1187 112.311C26.1187 112.629 26.0483 112.773 25.9948 112.835C25.9532 112.883 25.8655 112.946 25.6348 112.946V113.946C26.0599 113.946 26.4642 113.82 26.7505 113.49C27.025 113.173 27.1187 112.75 27.1187 112.311H26.1187ZM25.6348 112.946H23.8486V113.946H25.6348V112.946ZM23.8486 112.946C23.6179 112.946 23.5302 112.883 23.4886 112.835C23.4351 112.773 23.3647 112.629 23.3647 112.311H22.3647C22.3647 112.75 22.4584 113.173 22.7329 113.49C23.0192 113.82 23.4235 113.946 23.8486 113.946V112.946ZM23.3647 112.311L23.3647 102.684H22.3647L22.3647 112.311H23.3647ZM22.8647 102.184H18.0513V103.184H22.8647V102.184ZM17.5513 102.684V111.509H18.5513V102.684H17.5513ZM17.5513 111.509C17.5513 111.826 17.4809 111.971 17.4275 112.033C17.3858 112.081 17.2981 112.144 17.0674 112.144V113.144C17.4925 113.144 17.8968 113.018 18.1831 112.688C18.4576 112.371 18.5513 111.948 18.5513 111.509H17.5513ZM17.0674 112.144H15.2812V113.144H17.0674V112.144ZM15.2812 112.144C15.0505 112.144 14.9628 112.081 14.9212 112.033C14.8677 111.971 14.7974 111.826 14.7974 111.509H13.7974C13.7974 111.948 13.891 112.371 14.1655 112.688C14.4518 113.018 14.8561 113.144 15.2812 113.144V112.144ZM14.7974 111.509V102.684H13.7974V111.509H14.7974ZM14.2974 102.184H8.6665V103.184H14.2974V102.184ZM8.1665 102.684V112.795H9.1665V102.684H8.1665ZM8.1665 112.795C8.1665 113.113 8.09618 113.258 8.04269 113.319C8.00106 113.367 7.91338 113.431 7.68262 113.431V114.431C8.10778 114.431 8.51205 114.305 8.79838 113.974C9.07285 113.658 9.1665 113.235 9.1665 112.795H8.1665ZM7.68262 113.431H5.89648V114.431H7.68262V113.431ZM5.89648 113.431C5.66572 113.431 5.57804 113.367 5.53641 113.319C5.48293 113.258 5.4126 113.113 5.4126 112.795L4.4126 112.795C4.4126 113.235 4.50625 113.658 4.78072 113.974C5.06706 114.305 5.47133 114.431 5.89648 114.431V113.431ZM5.4126 112.795L5.4126 99.3237L4.4126 99.3237L4.4126 112.795L5.4126 112.795ZM25.1655 132.534L24.7513 132.254L24.75 132.256L25.1655 132.534ZM14.7061 128.522L15.1986 128.436L15.1261 128.022H14.7061V128.522ZM14.6758 128.522V128.022H14.3293L14.2076 128.347L14.6758 128.522ZM13.1621 130.717L12.8582 130.32L13.1621 130.717ZM11.4668 131.928L11.7345 132.351L11.7381 132.348L11.4668 131.928ZM6.21436 135.258L5.94662 134.836L5.94497 134.837L6.21436 135.258ZM5.80566 130.687L6.06077 131.117L6.06272 131.116L5.80566 130.687ZM10.9067 127.629L11.1638 128.058L11.1675 128.056L10.9067 127.629ZM12.6929 125.798L12.2923 125.499L12.2885 125.504L12.6929 125.798ZM13.6768 122.059H14.1768V121.559H13.6768V122.059ZM17.4307 122.059V121.559H16.9307V122.059H17.4307ZM18.1118 129.067L17.6711 129.303L17.6721 129.305L18.1118 129.067ZM22.4258 129.113L21.9627 128.924L21.96 128.931L22.4258 129.113ZM22.9253 122.059H23.4253V121.559H22.9253V122.059ZM5.4126 118.699C5.4126 118.432 5.48247 118.321 5.53757 118.27C5.59917 118.212 5.73826 118.139 6.04785 118.139V117.139C5.60061 117.139 5.17207 117.243 4.85525 117.539C4.53193 117.84 4.4126 118.259 4.4126 118.699L5.4126 118.699ZM6.04785 118.139H25.4834V117.139H6.04785V118.139ZM25.4834 118.139C25.793 118.139 25.9321 118.212 25.9937 118.27C26.0488 118.321 26.1187 118.432 26.1187 118.699H27.1187C27.1187 118.259 26.9993 117.84 26.676 117.539C26.3592 117.243 25.9306 117.139 25.4834 117.139V118.139ZM26.1187 118.699V125.707H27.1187V118.699H26.1187ZM26.1187 125.707C26.1187 128.795 25.6349 130.947 24.7513 132.254L25.5797 132.814C26.6337 131.255 27.1187 128.855 27.1187 125.707H26.1187ZM24.75 132.256C23.9083 133.514 22.5246 134.183 20.4731 134.183L20.4731 135.183C22.7609 135.183 24.5055 134.42 25.5811 132.812L24.75 132.256ZM20.4731 134.183C18.9953 134.183 17.8548 133.66 16.9988 132.624L16.2278 133.261C17.2891 134.546 18.7218 135.183 20.4731 135.183L20.4731 134.183ZM16.9988 132.624C16.1056 131.543 15.4995 130.154 15.1986 128.436L14.2136 128.609C14.5383 130.463 15.2037 132.021 16.2278 133.261L16.9988 132.624ZM14.7061 128.022H14.6758V129.022H14.7061V128.022ZM14.2076 128.347C13.8684 129.252 13.4118 129.896 12.8582 130.32L13.4661 131.114C14.2041 130.549 14.7566 129.731 15.1439 128.698L14.2076 128.347ZM12.8582 130.32C12.219 130.81 11.6652 131.205 11.1955 131.508L11.7381 132.348C12.2371 132.026 12.8136 131.614 13.4661 131.114L12.8582 130.32ZM11.1991 131.506L5.94663 134.836L6.48208 135.681L11.7345 132.351L11.1991 131.506ZM5.94497 134.837C5.7503 134.962 5.60735 135.026 5.51044 135.053C5.41285 135.08 5.40562 135.058 5.44012 135.073C5.48462 135.093 5.4811 135.121 5.46074 135.068C5.43712 135.006 5.4126 134.886 5.4126 134.683H4.4126C4.4126 134.949 4.44231 135.205 4.52718 135.426C4.6153 135.656 4.7745 135.873 5.03596 135.988C5.28741 136.099 5.55138 136.08 5.77924 136.016C6.00776 135.952 6.24449 135.833 6.48374 135.68L5.94497 134.837ZM5.4126 134.683V132.049H4.4126V134.683H5.4126ZM5.4126 132.049C5.4126 131.716 5.57367 131.406 6.06077 131.117L5.55056 130.257C4.8469 130.674 4.4126 131.272 4.4126 132.049H5.4126ZM6.06272 131.116L11.1638 128.058L10.6497 127.201L5.5486 130.258L6.06272 131.116ZM11.1675 128.056C11.795 127.673 12.4365 127 13.0972 126.092L12.2885 125.504C11.6575 126.371 11.1083 126.92 10.646 127.203L11.1675 128.056ZM13.0934 126.097C13.7968 125.156 14.1768 124.18 14.1768 123.179H13.1768C13.1768 123.914 12.9008 124.684 12.2923 125.499L13.0934 126.097ZM14.1768 123.179V122.059H13.1768V123.179H14.1768ZM13.6768 121.559H6.04785V122.559H13.6768V121.559ZM6.04785 121.559C5.73826 121.559 5.59917 121.486 5.53757 121.429C5.48247 121.377 5.4126 121.266 5.4126 121L4.4126 121C4.4126 121.439 4.53193 121.858 4.85525 122.16C5.17207 122.455 5.60061 122.559 6.04785 122.559V121.559ZM5.4126 121V118.699L4.4126 118.699V121L5.4126 121ZM16.9307 122.059V124.769H17.9307V122.059H16.9307ZM16.9307 124.769C16.9307 126.797 17.1544 128.339 17.6711 129.303L18.5526 128.831C18.161 128.1 17.9307 126.776 17.9307 124.769H16.9307ZM17.6721 129.305C17.941 129.802 18.3 130.196 18.7558 130.464C19.211 130.731 19.7342 130.854 20.3066 130.854V129.854C19.8801 129.854 19.538 129.763 19.2615 129.601C18.9857 129.439 18.7468 129.19 18.5516 128.829L17.6721 129.305ZM20.3066 130.854C20.9119 130.854 21.4553 130.739 21.9065 130.475C22.3653 130.206 22.6929 129.804 22.8916 129.295L21.96 128.931C21.8357 129.249 21.6487 129.467 21.4011 129.612C21.1459 129.762 20.7912 129.854 20.3066 129.854V130.854ZM22.8888 129.301C23.2586 128.394 23.4253 127.111 23.4253 125.495H22.4253C22.4253 127.068 22.259 128.197 21.9627 128.924L22.8888 129.301ZM23.4253 125.495V122.059H22.4253V125.495H23.4253ZM22.9253 121.559H17.4307V122.559H22.9253V121.559ZM8.18213 149.487L8.52636 149.124L8.52481 149.123L8.18213 149.487ZM12.9502 154.013L12.606 154.375L12.607 154.376L12.9502 154.013ZM16.7949 157.751L16.4398 158.103L16.4414 158.105L16.7949 157.751ZM22.7437 158.584L22.3837 158.237L22.3775 158.244L22.7437 158.584ZM20.5186 152.333L20.6747 151.858L20.6726 151.857L20.5186 152.333ZM19.7466 151.061L19.2727 150.902L19.2715 150.905L19.7466 151.061ZM20.2612 149.532L19.7888 149.368L19.7874 149.373L20.2612 149.532ZM21.6841 149.108L21.8156 148.626L21.6841 149.108ZM25.3926 151.515L25.0116 151.839L25.0132 151.841L25.3926 151.515ZM25.0293 162.308L24.7003 161.931L24.6988 161.932L25.0293 162.308ZM15.7202 161.536L15.3488 161.87L15.3499 161.872L15.7202 161.536ZM11.4062 157.085L11.0619 157.448L11.0619 157.448L11.4062 157.085ZM8.69678 154.512L9.0411 154.15L8.89637 154.012H8.69678V154.512ZM8.60596 154.512V154.012H8.07151L8.10706 154.545L8.60596 154.512ZM5.4126 149.896C5.4126 149.578 5.48293 149.433 5.53641 149.372C5.57804 149.323 5.66572 149.26 5.89648 149.26V148.26C5.47133 148.26 5.06706 148.386 4.78072 148.717C4.50625 149.033 4.4126 149.456 4.4126 149.896H5.4126ZM5.89648 149.26H6.62305V148.26H5.89648V149.26ZM6.62305 149.26C6.98156 149.26 7.38473 149.423 7.83945 149.851L8.52481 149.123C7.95023 148.582 7.31402 148.26 6.62305 148.26V149.26ZM7.83791 149.849L12.606 154.375L13.2944 153.65L8.52635 149.124L7.83791 149.849ZM12.607 154.376C14.0469 155.736 15.3244 156.978 16.4398 158.103L17.1501 157.4C16.0252 156.265 14.7396 155.014 13.2934 153.649L12.607 154.376ZM16.4414 158.105C17.6282 159.292 18.8882 159.947 20.2158 159.947V158.947C19.2427 158.947 18.2221 158.472 17.1485 157.398L16.4414 158.105ZM20.2158 159.947C21.44 159.947 22.4437 159.641 23.1098 158.924L22.3775 158.244C21.974 158.677 21.2924 158.947 20.2158 158.947V159.947ZM23.1036 158.931C23.7493 158.261 24.061 157.41 24.061 156.419H23.061C23.061 157.185 22.8279 157.776 22.3837 158.237L23.1036 158.931ZM24.061 156.419C24.061 154.973 23.7289 153.818 22.9147 153.131L22.2698 153.895C22.7474 154.298 23.061 155.081 23.061 156.419H24.061ZM22.9147 153.131C22.2243 152.549 21.4775 152.121 20.6747 151.858L20.3624 152.808C21.0329 153.028 21.6686 153.388 22.2698 153.895L22.9147 153.131ZM20.6726 151.857C20.3715 151.759 20.2567 151.649 20.2156 151.581C20.1844 151.53 20.1514 151.431 20.2217 151.217L19.2715 150.905C19.1399 151.306 19.1347 151.728 19.3608 152.1C19.577 152.456 19.9491 152.674 20.3645 152.808L20.6726 151.857ZM20.2205 151.221L20.7351 149.692L19.7874 149.373L19.2727 150.902L20.2205 151.221ZM20.7336 149.696C20.7702 149.591 20.8156 149.556 20.8883 149.535C20.9964 149.502 21.2031 149.495 21.5525 149.591L21.8156 148.626C21.3881 148.509 20.9691 148.467 20.6029 148.576C20.2014 148.696 19.9238 148.979 19.7889 149.368L20.7336 149.696ZM21.5525 149.591C22.8921 149.956 24.0433 150.7 25.0116 151.839L25.7735 151.191C24.6833 149.909 23.3621 149.048 21.8156 148.626L21.5525 149.591ZM25.0132 151.841C25.9443 152.926 26.4517 154.585 26.4517 156.904H27.4517C27.4517 154.46 26.9196 152.527 25.772 151.189L25.0132 151.841ZM26.4517 156.904C26.4517 159.309 25.831 160.943 24.7003 161.931L25.3583 162.684C26.7907 161.432 27.4517 159.463 27.4517 156.904H26.4517ZM24.6988 161.932C23.5055 162.984 22.2372 163.488 20.8818 163.488V164.488C22.5134 164.488 24.0101 163.872 25.3598 162.683L24.6988 161.932ZM20.8818 163.488C19.084 163.488 17.4925 162.745 16.0905 161.2L15.3499 161.872C16.9147 163.596 18.7643 164.488 20.8818 164.488V163.488ZM16.0916 161.201C14.6108 159.558 13.1638 158.065 11.7506 156.723L11.0619 157.448C12.454 158.77 13.883 160.244 15.3488 161.87L16.0916 161.201ZM11.7506 156.723L9.0411 154.15L8.35246 154.875L11.0619 157.448L11.7506 156.723ZM8.69678 154.012H8.60596V155.012H8.69678V154.012ZM8.10706 154.545C8.14702 155.145 8.1665 155.637 8.1665 156.026H9.1665C9.1665 155.607 9.14563 155.091 9.10485 154.479L8.10706 154.545ZM8.1665 156.026L8.1665 163.095H9.1665L9.1665 156.026H8.1665ZM8.1665 163.095C8.1665 163.412 8.09618 163.557 8.04269 163.619C8.00106 163.667 7.91338 163.73 7.68262 163.73V164.73C8.10778 164.73 8.51205 164.604 8.79838 164.274C9.07285 163.957 9.1665 163.534 9.1665 163.095H8.1665ZM7.68262 163.73H5.89648V164.73H7.68262V163.73ZM5.89648 163.73C5.66572 163.73 5.57804 163.667 5.53641 163.619C5.48293 163.557 5.4126 163.412 5.4126 163.095H4.4126C4.4126 163.534 4.50625 163.957 4.78072 164.274C5.06706 164.604 5.47133 164.73 5.89648 164.73V163.73ZM5.4126 163.095L5.4126 149.896H4.4126L4.4126 163.095H5.4126ZM10.2861 171.859L10.1997 171.366L10.1969 171.367L10.2861 171.859ZM10.2861 177.475L10.3753 176.983L10.3725 176.982L10.2861 177.475ZM21.0635 177.475L20.9771 176.982L20.9743 176.983L21.0635 177.475ZM21.0635 171.859L21.1527 171.367L21.1499 171.366L21.0635 171.859ZM15.6748 167.424C19.7381 167.424 22.5003 168.062 24.0807 169.233L24.6761 168.43C22.8255 167.058 19.7853 166.424 15.6748 166.424V167.424ZM24.0807 169.233C25.6396 170.389 26.4517 172.169 26.4517 174.674H27.4517C27.4517 171.933 26.5482 169.817 24.6761 168.43L24.0807 169.233ZM26.4517 174.674C26.4517 177.18 25.6396 178.96 24.0807 180.115L24.6761 180.919C26.5482 179.531 27.4517 177.416 27.4517 174.674H26.4517ZM24.0807 180.115C22.5003 181.287 19.7381 181.924 15.6748 181.924V182.924C19.7853 182.924 22.8255 182.29 24.6761 180.919L24.0807 180.115ZM15.6748 181.924C11.6115 181.924 8.84926 181.287 7.26892 180.115L6.67346 180.919C8.52411 182.29 11.5643 182.924 15.6748 182.924V181.924ZM7.26892 180.115C5.71002 178.96 4.89795 177.18 4.89795 174.674H3.89795C3.89795 177.416 4.80137 179.531 6.67346 180.919L7.26892 180.115ZM4.89795 174.674C4.89795 172.169 5.71002 170.389 7.26892 169.233L6.67346 168.43C4.80137 169.817 3.89795 171.933 3.89795 174.674H4.89795ZM7.26892 169.233C8.84926 168.062 11.6115 167.424 15.6748 167.424V166.424C11.5643 166.424 8.52411 167.058 6.67346 168.43L7.26892 169.233ZM15.6748 170.905C13.7809 170.905 11.9556 171.058 10.1997 171.366L10.3725 172.351C12.0678 172.054 13.835 171.905 15.6748 171.905V170.905ZM10.1969 171.367C9.26653 171.536 8.50516 171.884 7.97676 172.459C7.44229 173.04 7.19775 173.797 7.19775 174.674H8.19775C8.19775 173.988 8.38462 173.493 8.71293 173.136C9.04733 172.772 9.58015 172.495 10.3753 172.351L10.1969 171.367ZM7.19775 174.674C7.19775 175.552 7.44226 176.308 7.97768 176.887C8.50695 177.459 9.26922 177.804 10.1997 177.967L10.3725 176.982C9.57746 176.843 9.04554 176.569 8.71202 176.208C8.38465 175.854 8.19775 175.361 8.19775 174.674H7.19775ZM10.1969 177.967C11.9538 178.285 13.7799 178.444 15.6748 178.444L15.6748 177.444C13.8359 177.444 12.0697 177.29 10.3753 176.983L10.1969 177.967ZM15.6748 178.444C17.5697 178.444 19.3958 178.285 21.1527 177.967L20.9743 176.983C19.28 177.29 17.5137 177.444 15.6748 177.444L15.6748 178.444ZM21.1499 177.967C22.0804 177.804 22.8427 177.459 23.3719 176.887C23.9074 176.308 24.1519 175.552 24.1519 174.674H23.1519C23.1519 175.361 22.965 175.854 22.6376 176.208C22.3041 176.569 21.7721 176.843 20.9771 176.982L21.1499 177.967ZM24.1519 174.674C24.1519 173.797 23.9073 173.04 23.3728 172.459C22.8445 171.884 22.0831 171.536 21.1527 171.367L20.9743 172.351C21.7695 172.495 22.3023 172.772 22.6367 173.136C22.965 173.493 23.1519 173.988 23.1519 174.674H24.1519ZM21.1499 171.366C19.394 171.058 17.5688 170.905 15.6748 170.905V171.905C17.5146 171.905 19.2818 172.054 20.9771 172.351L21.1499 171.366ZM8.18213 185.815L8.52636 185.452L8.52481 185.451L8.18213 185.815ZM12.9502 190.341L12.606 190.703L12.607 190.704L12.9502 190.341ZM16.7949 194.08L16.4398 194.432L16.4414 194.433L16.7949 194.08ZM22.7437 194.912L22.3837 194.565L22.3775 194.572L22.7437 194.912ZM20.5186 188.661L20.6747 188.186L20.6726 188.185L20.5186 188.661ZM19.7466 187.389L19.2727 187.23L19.2715 187.233L19.7466 187.389ZM20.2612 185.86L19.7888 185.696L19.7874 185.701L20.2612 185.86ZM21.6841 185.437L21.8156 184.954L21.6841 185.437ZM25.3926 187.843L25.0116 188.167L25.0132 188.169L25.3926 187.843ZM25.0293 198.636L24.7003 198.259L24.6988 198.261L25.0293 198.636ZM15.7202 197.864L15.3488 198.199L15.3499 198.2L15.7202 197.864ZM11.4062 193.414L11.0619 193.776L11.0619 193.776L11.4062 193.414ZM8.69678 190.84L9.0411 190.478L8.89637 190.34H8.69678V190.84ZM8.60596 190.84V190.34H8.07151L8.10706 190.874L8.60596 190.84ZM5.4126 186.224C5.4126 185.906 5.48293 185.761 5.53641 185.7C5.57804 185.652 5.66572 185.588 5.89648 185.588V184.588C5.47133 184.588 5.06706 184.714 4.78072 185.045C4.50625 185.361 4.4126 185.784 4.4126 186.224H5.4126ZM5.89648 185.588H6.62305V184.588H5.89648V185.588ZM6.62305 185.588C6.98156 185.588 7.38473 185.751 7.83945 186.179L8.52481 185.451C7.95023 184.91 7.31402 184.588 6.62305 184.588V185.588ZM7.83791 186.178L12.606 190.703L13.2944 189.978L8.52635 185.452L7.83791 186.178ZM12.607 190.704C14.0469 192.064 15.3244 193.306 16.4398 194.432L17.1501 193.728C16.0252 192.593 14.7396 191.342 13.2934 189.977L12.607 190.704ZM16.4414 194.433C17.6282 195.62 18.8882 196.275 20.2158 196.275V195.275C19.2427 195.275 18.2221 194.8 17.1485 193.726L16.4414 194.433ZM20.2158 196.275C21.44 196.275 22.4437 195.969 23.1098 195.253L22.3775 194.572C21.974 195.006 21.2924 195.275 20.2158 195.275V196.275ZM23.1036 195.259C23.7493 194.59 24.061 193.738 24.061 192.748H23.061C23.061 193.513 22.8279 194.104 22.3837 194.565L23.1036 195.259ZM24.061 192.748C24.061 191.301 23.7289 190.146 22.9147 189.459L22.2698 190.223C22.7474 190.626 23.061 191.409 23.061 192.748H24.061ZM22.9147 189.459C22.2243 188.877 21.4775 188.45 20.6747 188.186L20.3624 189.136C21.0329 189.356 21.6686 189.716 22.2698 190.223L22.9147 189.459ZM20.6726 188.185C20.3715 188.087 20.2567 187.977 20.2156 187.909C20.1844 187.858 20.1514 187.759 20.2217 187.545L19.2715 187.233C19.1399 187.635 19.1347 188.056 19.3608 188.428C19.577 188.784 19.9491 189.002 20.3645 189.136L20.6726 188.185ZM20.2205 187.549L20.7351 186.02L19.7874 185.701L19.2727 187.23L20.2205 187.549ZM20.7336 186.024C20.7702 185.919 20.8156 185.884 20.8883 185.863C20.9964 185.831 21.2031 185.824 21.5525 185.919L21.8156 184.954C21.3881 184.838 20.9691 184.795 20.6029 184.904C20.2014 185.024 19.9238 185.308 19.7889 185.696L20.7336 186.024ZM21.5525 185.919C22.8921 186.284 24.0433 187.028 25.0116 188.167L25.7735 187.519C24.6833 186.237 23.3621 185.376 21.8156 184.954L21.5525 185.919ZM25.0132 188.169C25.9443 189.254 26.4517 190.913 26.4517 193.232H27.4517C27.4517 190.788 26.9196 188.855 25.772 187.518L25.0132 188.169ZM26.4517 193.232C26.4517 195.638 25.831 197.271 24.7003 198.259L25.3583 199.012C26.7907 197.76 27.4517 195.791 27.4517 193.232H26.4517ZM24.6988 198.261C23.5055 199.312 22.2372 199.816 20.8818 199.816V200.816C22.5134 200.816 24.0101 200.2 25.3598 199.011L24.6988 198.261ZM20.8818 199.816C19.084 199.816 17.4925 199.073 16.0905 197.528L15.3499 198.2C16.9147 199.924 18.7643 200.816 20.8818 200.816V199.816ZM16.0916 197.529C14.6108 195.886 13.1638 194.393 11.7506 193.051L11.0619 193.776C12.454 195.098 13.883 196.572 15.3488 198.199L16.0916 197.529ZM11.7506 193.051L9.0411 190.478L8.35246 191.203L11.0619 193.776L11.7506 193.051ZM8.69678 190.34H8.60596V191.34H8.69678V190.34ZM8.10706 190.874C8.14702 191.473 8.1665 191.965 8.1665 192.354H9.1665C9.1665 191.935 9.14563 191.419 9.10485 190.807L8.10706 190.874ZM8.1665 192.354L8.1665 199.423H9.1665L9.1665 192.354H8.1665ZM8.1665 199.423C8.1665 199.74 8.09618 199.885 8.04269 199.947C8.00106 199.995 7.91338 200.058 7.68262 200.058V201.058C8.10778 201.058 8.51205 200.932 8.79838 200.602C9.07285 200.285 9.1665 199.862 9.1665 199.423H8.1665ZM7.68262 200.058H5.89648V201.058H7.68262V200.058ZM5.89648 200.058C5.66572 200.058 5.57804 199.995 5.53641 199.947C5.48293 199.885 5.4126 199.74 5.4126 199.423H4.4126C4.4126 199.862 4.50625 200.285 4.78072 200.602C5.06706 200.932 5.47133 201.058 5.89648 201.058V200.058ZM5.4126 199.423L5.4126 186.224H4.4126L4.4126 199.423H5.4126ZM10.2861 208.187L10.1997 207.695L10.1969 207.695L10.2861 208.187ZM10.2861 213.803L10.3753 213.311L10.3725 213.31L10.2861 213.803ZM21.0635 213.803L20.9771 213.31L20.9743 213.311L21.0635 213.803ZM21.0635 208.187L21.1527 207.695L21.1499 207.695L21.0635 208.187ZM15.6748 203.752C19.7381 203.752 22.5003 204.39 24.0807 205.561L24.6761 204.758C22.8255 203.386 19.7853 202.752 15.6748 202.752V203.752ZM24.0807 205.561C25.6396 206.717 26.4517 208.497 26.4517 211.002H27.4517C27.4517 208.261 26.5482 206.146 24.6761 204.758L24.0807 205.561ZM26.4517 211.002C26.4517 213.508 25.6396 215.288 24.0807 216.444L24.6761 217.247C26.5482 215.859 27.4517 213.744 27.4517 211.002H26.4517ZM24.0807 216.444C22.5003 217.615 19.7381 218.252 15.6748 218.252V219.252C19.7853 219.252 22.8255 218.619 24.6761 217.247L24.0807 216.444ZM15.6748 218.252C11.6115 218.252 8.84926 217.615 7.26892 216.444L6.67346 217.247C8.52411 218.619 11.5643 219.252 15.6748 219.252V218.252ZM7.26892 216.444C5.71002 215.288 4.89795 213.508 4.89795 211.002H3.89795C3.89795 213.744 4.80137 215.859 6.67346 217.247L7.26892 216.444ZM4.89795 211.002C4.89795 208.497 5.71002 206.717 7.26892 205.561L6.67346 204.758C4.80137 206.146 3.89795 208.261 3.89795 211.002H4.89795ZM7.26892 205.561C8.84926 204.39 11.6115 203.752 15.6748 203.752V202.752C11.5643 202.752 8.52411 203.386 6.67346 204.758L7.26892 205.561ZM15.6748 207.233C13.7809 207.233 11.9556 207.386 10.1997 207.695L10.3725 208.679C12.0678 208.382 13.835 208.233 15.6748 208.233V207.233ZM10.1969 207.695C9.26653 207.864 8.50516 208.212 7.97676 208.787C7.44229 209.368 7.19775 210.125 7.19775 211.002H8.19775C8.19775 210.316 8.38462 209.821 8.71293 209.464C9.04733 209.1 9.58015 208.823 10.3753 208.679L10.1969 207.695ZM7.19775 211.002C7.19775 211.88 7.44226 212.636 7.97768 213.215C8.50695 213.788 9.26922 214.132 10.1997 214.295L10.3725 213.31C9.57746 213.171 9.04554 212.897 8.71202 212.536C8.38465 212.182 8.19775 211.689 8.19775 211.002H7.19775ZM10.1969 214.295C11.9538 214.613 13.7799 214.772 15.6748 214.772V213.772C13.8359 213.772 12.0697 213.618 10.3753 213.311L10.1969 214.295ZM15.6748 214.772C17.5697 214.772 19.3958 214.613 21.1527 214.295L20.9743 213.311C19.28 213.618 17.5137 213.772 15.6748 213.772V214.772ZM21.1499 214.295C22.0804 214.132 22.8427 213.788 23.3719 213.215C23.9074 212.636 24.1519 211.88 24.1519 211.002H23.1519C23.1519 211.689 22.965 212.182 22.6376 212.536C22.3041 212.897 21.7721 213.171 20.9771 213.31L21.1499 214.295ZM24.1519 211.002C24.1519 210.125 23.9073 209.368 23.3728 208.787C22.8445 208.212 22.0831 207.864 21.1527 207.695L20.9743 208.679C21.7695 208.823 22.3023 209.1 22.6367 209.464C22.965 209.821 23.1519 210.316 23.1519 211.002H24.1519ZM21.1499 207.695C19.394 207.386 17.5688 207.233 15.6748 207.233V208.233C17.5146 208.233 19.2818 208.382 20.9771 208.679L21.1499 207.695Z" fill="black"/>
</g>
<defs>
<filter id="filter0_d_176_6" x="0.397949" y="0.919922" width="30.7354" height="225.833" filterUnits="userSpaceOnUse" color-interpolation-filters="sRGB">
<feFlood flood-opacity="0" result="BackgroundImageFix"/>
<feColorMatrix in="SourceAlpha" type="matrix" values="0 0 0 0 0 0 0 0 0 0 0 0 0 0 0 0 0 0 127 0" result="hardAlpha"/>
<feOffset dy="4"/>
<feGaussianBlur stdDeviation="2"/>
<feComposite in2="hardAlpha" operator="out"/>
<feColorMatrix type="matrix" values="0 0 0 0 0 0 0 0 0 0 0 0 0 0 0 0 0 0 0.25 0"/>
<feBlend mode="normal" in2="BackgroundImageFix" result="effect1_dropShadow_176_6"/>
<feBlend mode="normal" in="SourceGraphic" in2="effect1_dropShadow_176_6" result="shape"/>
</filter>
</defs>
</svg>
